<?xml version="1.0" encoding="utf-8"?>
<!-- Generator: Adobe Illustrator 23.0.3, SVG Export Plug-In . SVG Version: 6.00 Build 0)  -->
<svg version="1.1" xmlns="http://www.w3.org/2000/svg" xmlns:xlink="http://www.w3.org/1999/xlink" x="0px" y="0px"
	 viewBox="0 0 1600 1200" style="enable-background:new 0 0 1600 1200;" xml:space="preserve">
<style type="text/css">
	.st0{fill:#FFFFFF;}
	.st1{fill:#161616;}
	.st2{fill:#E8E8E8;}
	.st3{fill:#5222D0;}
	.st4{fill:#EC615B;}
	.st5{opacity:0.25;fill:#707070;}
	.st6{opacity:0.28;fill:#707070;}
	.st7{opacity:0.18;fill:#707070;}
	.st8{opacity:0.2;fill:#707070;}
	.st9{opacity:0.19;fill:#707070;}
	.st10{fill:#707070;}
	.st11{opacity:0.33;fill:#707070;}
	.st12{opacity:0.13;fill:#898989;}
	.st13{opacity:0.21;fill:#757575;}
</style>
<g id="blanket">
	<path class="st0" d="M79.1,951.7c28.4,10.7,65.3,24.2,108.9,38.7c64.1,21.4,146.6,46.5,243.8,69.8
		c171.7,41.2,308.7,57.7,372.6,64.3c42.4,4.4,77.8,7.1,102.8,8.8c18.5-8.1,48.4-21.4,84.8-38.4c32.9-15.3,156.3-73.3,398.8-208.7
		c35.1-19.6,85.2-47.8,145.7-82.6c-29.4-3.1-73-7.5-125.9-12.3c-119-10.6-200.4-15.1-246.3-18.2c-81.7-5.4-199-15.9-348.7-38.5
		c-40.7,16-104.9,39.8-186,63.1c-85.8,24.7-97.1,21.9-208.5,52.4c-49.3,13.5-57.1,16.8-212.2,62.9
		C153.5,929.8,108.1,943.2,79.1,951.7z"/>
	<g>
		<g>
			<path class="st1" d="M78.7,953.1c103.7,39.2,209.5,72.5,316.9,99.7c106.8,27.1,215.1,48.1,324.3,63
				c61.3,8.3,122.8,14.7,184.5,19.2c1.9,0.1,1.9-2.9,0-3c-110.4-8-220.3-22.2-329.1-42.7c-108.3-20.3-215.4-46.8-320.8-79.2
				c-59-18.1-117.4-38.2-175.1-60C77.7,949.6,76.9,952.5,78.7,953.1L78.7,953.1z"/>
		</g>
	</g>
	<g>
		<g>
			<path class="st1" d="M908,1134.7c84.8-37.1,168.1-77.6,250.3-120.2c81.9-42.5,162.8-87.1,243.2-132.4
				c45.4-25.5,90.6-51.3,135.8-77.1c1.7-1,0.2-3.5-1.5-2.6c-80.5,45.9-161,91.7-242.2,136.3c-80.9,44.4-162.5,87.5-245.5,127.9
				c-46.8,22.8-94,44.7-141.7,65.5C904.7,1132.8,906.2,1135.4,908,1134.7L908,1134.7z"/>
		</g>
	</g>
	<g>
		<g>
			<path class="st1" d="M82.5,953.1c94.8-31.7,190.4-60.8,286.7-87.2c48.2-13.2,96.5-25.7,145-37.7c48.3-11.9,96.6-23.8,144.3-38
				c53.3-15.8,105.8-33.8,157.6-54c1.8-0.7,1-3.6-0.8-2.9c-46.3,18.1-93.3,34.4-140.9,49c-47.2,14.4-95,26.7-142.9,38.5
				c-97,23.9-193.5,49.6-289.2,78.4c-53.8,16.2-107.3,33.2-160.6,50.9C79.9,950.8,80.7,953.7,82.5,953.1L82.5,953.1z"/>
		</g>
	</g>
	<g>
		<g>
			<path class="st1" d="M817,734.1c46.2,7.5,92.3,15.4,138.6,22.2c45.5,6.7,91.4,9.8,137.3,13.1c94.4,7,188.9,14,283.3,21
				c53,3.9,106,7.8,159,11.8c1.9,0.1,1.9-2.9,0-3c-94.1-7-188.2-13.9-282.3-20.9c-46.7-3.5-93.4-6.9-140.2-10.4
				c-46.2-3.4-92.5-6-138.5-12c-52.3-6.9-104.4-16.2-156.5-24.6C815.9,730.9,815.1,733.8,817,734.1L817,734.1z"/>
		</g>
	</g>
	<g>
		<g>
			<path class="st2" d="M186,938.5c95.3,32.1,190.7,64.3,288.2,89.5c48.3,12.5,97,23.3,146.3,31.6c50.8,8.5,102,13.8,153.1,19.7
				c58.1,6.6,116.2,13.3,174.3,19.9c1.9,0.2,1.9-2.8,0-3c-51.5-5.9-103-11.7-154.5-17.6c-51.7-5.9-103.6-11.2-155.1-19.1
				c-98.7-15.2-195.4-41.3-290.7-71c-53.9-16.8-107.3-34.8-160.8-52.8C184.9,935,184.2,937.9,186,938.5L186,938.5z"/>
		</g>
	</g>
	<g>
		<g>
			<path class="st2" d="M343.2,897.5c86.8,30.4,175.2,56.2,264.7,77.4c88.7,21,178.5,37.3,268.9,49c51.3,6.6,102.7,11.7,154.3,15.3
				c1.9,0.1,1.9-2.9,0-3c-91.6-6.4-182.9-17.5-273.3-33.5c-90-15.8-179.1-36.3-266.9-61.4c-49.4-14.1-98.4-29.7-146.9-46.7
				C342.2,894,341.4,896.9,343.2,897.5L343.2,897.5z"/>
		</g>
	</g>
	<g>
		<g>
			<path class="st2" d="M574.3,844c2,1,4.1,2.1,6.1,3.1c1.7,0.9,3.2-1.7,1.5-2.6c-2-1-4.1-2.1-6.1-3.1
				C574.1,840.6,572.6,843.2,574.3,844L574.3,844z"/>
		</g>
	</g>
	<g>
		<g>
			<path class="st2" d="M573.3,854.3c64.5,27.8,132,48.2,200.5,63.5c68.6,15.3,138.2,25.8,207.9,34.5c39.9,5,79.8,9.3,119.7,13.7
				c1.9,0.2,1.9-2.8,0-3c-70.3-7.6-140.6-15.4-210.5-26.3c-68.8-10.7-137.2-24.5-203.9-44.4c-38.1-11.4-75.7-24.7-112.2-40.5
				C573.1,850.9,571.6,853.5,573.3,854.3L573.3,854.3z"/>
		</g>
	</g>
	<g>
		<g>
			<path class="st2" d="M666.1,795.4c65.2,23,131.5,42.6,198.7,58.8c67.2,16.2,135.3,28.9,203.9,38.2c38.4,5.2,76.9,9.2,115.6,12.2
				c1.9,0.1,1.9-2.9,0-3c-69.1-5.3-137.9-14.1-206.1-26.5c-67.7-12.3-134.7-28-200.8-47.1c-37.1-10.7-74-22.6-110.5-35.4
				C665.1,791.9,664.3,794.8,666.1,795.4L666.1,795.4z"/>
		</g>
	</g>
	<g>
		<g>
			<path class="st2" d="M777.9,761.7c70.9,16.9,141.7,34.4,212.7,50.7c69.9,16,141.9,19.6,213.2,24.8c41,3,82,5.6,123,7.9
				c1.9,0.1,1.9-2.9,0-3c-72.1-4.1-144.2-9.1-216.1-15.3c-36.3-3.1-72.3-7-107.9-14.8c-35-7.6-69.8-16.4-104.7-24.7
				c-39.8-9.5-79.6-19-119.3-28.5C776.9,758.4,776.1,761.2,777.9,761.7L777.9,761.7z"/>
		</g>
	</g>
</g>
<g id="background">
	<g>
		<g>
			<path class="st2" d="M108,934.5c-15.9-14.6-26.9-33.6-31.6-54.7c-0.5,0.6-1,1.3-1.4,1.9c7.4,0.8,13.6,5,17.3,11.5
				c1,1.7,3.5,0.2,2.6-1.5c-12-21.3-24.1-43.4-26.1-68.2c-0.6,0.5-1.3,1-1.9,1.4c4.7,1.8,8.1,5.1,10,9.8c0.9-0.4,1.8-0.8,2.7-1.2
				c-11.3-25.1-17.3-52.3-17.6-79.8c-0.6,0.5-1.3,1-1.9,1.4c6.2,2.4,8.7,9.6,11.3,15.2c3.1,6.7,6.1,13.3,9.2,20
				c6.3,13.6,12.5,27.2,18.8,40.8c12.4,26.9,24.8,53.8,37.2,80.7c0.8,1.8,3.4,0.2,2.6-1.5c-13.2-28.7-26.5-57.4-39.7-86.2
				c-6.6-14.2-13.1-28.4-19.7-42.6c-3.1-6.7-5.9-13.7-9.4-20.1c-2.3-4.1-5.1-7.4-9.5-9.1c-0.9-0.4-1.9,0.6-1.9,1.4
				c0.3,28.1,6.5,55.7,18.1,81.3c0.7,1.5,3.4,0.4,2.7-1.2c-2.3-5.8-6.3-9.7-12.1-11.9c-0.9-0.3-2,0.5-1.9,1.4
				c2.1,25.4,14.3,47.9,26.6,69.7c0.9-0.5,1.7-1,2.6-1.5c-4.3-7.5-11.4-12-19.9-13c-1-0.1-1.6,1-1.4,1.9c4.8,21.6,16,41.1,32.3,56
				C107.3,937.9,109.4,935.8,108,934.5L108,934.5z"/>
		</g>
	</g>
	<g>
		<g>
			<path class="st2" d="M115.4,857.2c-3.4-10.5-4.8-21.3-4.1-32.3c-0.9,0.3-1.9,0.5-2.8,0.8c4.2,6,8.4,12.1,12.5,18.1
				c0.9,1.3,3.3,0.6,2.7-1.2c-7.8-24.4-11.4-49.8-10.7-75.4c-0.9,0.4-1.7,0.7-2.6,1.1c7.5,7.7,10.5,18.2,13.8,28.2
				c3.8,11.3,7.6,22.6,11.4,33.8c7.5,22.2,15,44.5,22.5,66.7c0.6,1.8,3.5,1,2.9-0.8c-7.9-23.5-15.8-47-23.7-70.5
				c-3.9-11.6-7.8-23.2-11.7-34.8c-3-9-6.3-17.9-13-24.8c-0.9-1-2.5-0.2-2.6,1.1c-0.7,25.9,2.9,51.6,10.8,76.2
				c0.9-0.4,1.8-0.8,2.7-1.2c-4.2-6-8.4-12.1-12.5-18.1c-0.9-1.2-2.7-0.8-2.8,0.8c-0.7,11.3,0.7,22.4,4.2,33.1
				C113.1,859.8,116,859,115.4,857.2L115.4,857.2z"/>
		</g>
	</g>
	<g>
		<g>
			<path class="st2" d="M158.6,880.1c-1.8-6.1-0.8-12,2.9-17.3c-0.9,0-1.7,0-2.6,0c7.1,14.7,12.3,30.2,15.6,46.2
				c0.4,1.9,3.3,1.1,2.9-0.8c-3.3-16.3-8.6-32-15.9-47c-0.5-1.1-2-0.8-2.6,0c-4.1,5.9-5.2,12.8-3.2,19.6
				C156.2,882.8,159.1,882,158.6,880.1L158.6,880.1z"/>
		</g>
	</g>
	<g>
		<g>
			<path class="st2" d="M1441.6,789.4c-2.2-11.6-4.5-23.2-6.7-34.9c-1.6-8.6-7-23.1,1-29.9c-0.8-0.1-1.6-0.2-2.4-0.3
				c1.6,2.2,3.1,4.4,4.7,6.7c1.1,1.6,3.7,0.1,2.6-1.5c-1.6-2.2-3.1-4.4-4.7-6.7c-0.6-0.8-1.6-1-2.4-0.3c-7.4,6.2-4.8,16.8-3.2,25.1
				c2.7,14.2,5.5,28.4,8.2,42.6C1439,792.1,1441.9,791.3,1441.6,789.4L1441.6,789.4z"/>
		</g>
	</g>
	<g>
		<g>
			<path class="st2" d="M1448.9,750.6c-3.5-23.6-7-47.4-5.9-71.3c0.6-11.7,2.3-23.4,5.8-34.6c0.3-0.9,0.5-1.8,0.8-2.6
				c1,0.5,1.9,1,2.9,1.5c0.8,1,0.9,3.6,1.2,4.8c0.7,2.9,1.5,5.8,2.2,8.6c1.6,6.4,3.3,12.8,4.9,19.2c0.5,1.9,3.2,1.1,2.9-0.8
				c-5.1-31.3,1.2-63.6,17.5-90.8c-0.9-0.1-1.8-0.2-2.7-0.4c2.2,13.8,2.4,27.8,2.9,41.7c0.4,14.2,0.9,28.4,1.3,42.6
				c0.9,28.1,1.8,56.2,2.6,84.3c0.1,1.9,3.1,1.9,3,0c-0.9-28.8-1.8-57.5-2.7-86.3c-0.4-14.2-0.9-28.4-1.3-42.6
				c-0.4-13.6-0.8-27.1-2.9-40.5c-0.2-1.3-2.1-1.4-2.7-0.4c-16.8,27.9-23.1,61-17.8,93.1c1-0.3,1.9-0.5,2.9-0.8
				c-2-7.7-3.9-15.4-5.9-23c-1-3.8-1.4-13-6.1-14.5c-3.5-1.1-4.7,2.6-5.6,5.2c-2.3,7-3.8,14.3-4.8,21.5c-4,28.9,0.3,58.2,4.6,86.8
				C1446.3,753.3,1449.2,752.5,1448.9,750.6L1448.9,750.6z"/>
		</g>
	</g>
	<g>
		<g>
			<path class="st2" d="M1490.2,712.7c-0.5-11.4,2.7-22.1,9.4-31.3c-0.7,0.2-1.4,0.4-2.1,0.5c6.4,4.4,7.2,12.6,7.5,19.7
				c0.4,8.1,0.6,16.2,0.6,24.4c0.1,16.6-0.6,33.2-1.8,49.7c-0.1,1.9,2.9,1.9,3,0c1.5-19.1,2.1-38.3,1.7-57.5
				c-0.2-12.1,2.1-30.9-9.5-38.8c-0.7-0.5-1.6-0.1-2.1,0.5c-7,9.6-10.4,21-9.8,32.8C1487.3,714.6,1490.3,714.6,1490.2,712.7
				L1490.2,712.7z"/>
		</g>
	</g>
	<g>
		<g>
			<path class="st2" d="M1511.4,773.9c0.6-8.9,3.6-17.1,8.7-24.4c-0.9-0.3-1.9-0.5-2.8-0.8c1.6,14.2,2.7,28.4,3.1,42.6
				c0.1,1.9,3.1,1.9,3,0c-0.5-14.2-1.5-28.5-3.1-42.6c-0.2-1.5-1.9-2-2.8-0.8c-5.4,7.7-8.5,16.5-9.1,25.9
				C1508.3,775.9,1511.3,775.9,1511.4,773.9L1511.4,773.9z"/>
		</g>
	</g>
	<g>
		<g>
			<path class="st2" d="M616,693.9c-6.6-14.1-11.9-28.8-15.6-43.9c-1.7-7-3.2-14.1-4.2-21.3c-0.2-1.6-1-3.8-0.6-5.5
				c-0.2-2.9,1.5-3.3,5-1.3c0.3,0.5,0.6,1,1,1.5c2.7,2.9,4.7,7.5,6.8,10.8c0.9,1.4,3.2,0.5,2.7-1.2c-5.9-22.6-11.8-45.1-17.7-67.7
				c-0.5-1.9-3.4-1.1-2.9,0.8c5.9,22.6,11.8,45.1,17.7,67.7c0.9-0.4,1.8-0.8,2.7-1.2c-2.8-4.4-5.3-9.4-8.5-13.5
				c-1.4-1.8-3.5-3.5-6-2.7c-6.4,2-3.1,13.2-2.4,17.4c3.6,21.3,10.3,41.9,19.5,61.4C614.2,697.1,616.8,695.6,616,693.9L616,693.9z"
				/>
		</g>
	</g>
	<g>
		<g>
			<path class="st2" d="M592.1,553.6c7.3,12.7,13.1,26.1,17.2,40.2c0.5,1.8,3.4,1.1,2.9-0.8c-4.4-16.8-8.9-33.6-11.8-50.7
				c-1.5-8.7-2.5-17.4-3-26.3c-0.2-4.5-0.3-8.9-0.2-13.4c0.1-4.3-0.2-9.2,3.2-12.4c-0.7,0-1.4,0-2.1,0c4,5,5.8,11,7.6,17
				c2,6.7,3.9,13.4,5.9,20.1c3.8,13.1,7.7,26.1,11.5,39.2c7.7,26.1,15.3,52.3,23,78.4c0.5,1.8,3.4,1.1,2.9-0.8
				c-8-27.4-16.1-54.8-24.1-82.2c-3.9-13.4-7.9-26.8-11.8-40.2c-3.3-11.2-5.4-24.2-12.9-33.6c-0.5-0.7-1.6-0.5-2.1,0
				c-5.2,4.9-4.2,13.8-4.1,20.2c0.1,9.1,0.9,18.1,2.1,27.1c2.8,19.7,7.9,39.1,12.9,58.3c1-0.3,1.9-0.5,2.9-0.8
				c-4.2-14.3-10.1-28-17.5-40.9C593.8,550.4,591.2,551.9,592.1,553.6L592.1,553.6z"/>
		</g>
	</g>
	<g>
		<g>
			<path class="st2" d="M648.4,625.1c-0.8-11.6-0.5-23.1,1.1-34.7c-1,0-1.9,0-2.9,0c6.9,19,12.3,38.4,16.2,58.1
				c0.4,1.9,3.3,1.1,2.9-0.8c-3.9-19.8-9.4-39.2-16.2-58.1c-0.4-1.2-2.7-1.6-2.9,0c-1.6,11.8-2,23.6-1.2,35.4
				C645.5,627.1,648.5,627.1,648.4,625.1L648.4,625.1z"/>
		</g>
	</g>
	<g>
		<g>
			<path class="st2" d="M664,622c7.8,9.2,11.5,20.9,10.4,32.9c-0.2,1.9,2.8,1.9,3,0c1.1-12.8-3-25.2-11.3-35
				C664.9,618.4,662.8,620.5,664,622L664,622z"/>
		</g>
	</g>
	<g>
		<g>
			<path class="st2" d="M1002.1,678.9c-6.2-19.1-7.1-39.2-2.7-58.7c0.4-1.9-2.5-2.7-2.9-0.8c-4.5,20.1-3.6,40.7,2.7,60.3
				C999.8,681.5,1002.7,680.7,1002.1,678.9L1002.1,678.9z"/>
		</g>
	</g>
	<g>
		<g>
			<path class="st2" d="M1013.3,665.3c-4.9-42.4-5.3-85.2-1.1-127.6c0.2-1.9-2.8-1.9-3,0c-4.2,42.5-3.8,85.3,1.1,127.6
				C1010.5,667.2,1013.5,667.2,1013.3,665.3L1013.3,665.3z"/>
		</g>
	</g>
	<g>
		<g>
			<path class="st2" d="M1036.7,688.2c0-28.6,0-57.2,0-85.8c0-1.9-3-1.9-3,0c0,28.6,0,57.2,0,85.8
				C1033.7,690.1,1036.7,690.1,1036.7,688.2L1036.7,688.2z"/>
		</g>
	</g>
	<g>
		<g>
			<path class="st2" d="M1042,706.1c5-26.9,10-53.8,15-80.7c0.4-1.9-2.5-2.7-2.9-0.8c-5,26.9-10,53.8-15,80.7
				C1038.7,707.2,1041.6,708,1042,706.1L1042,706.1z"/>
		</g>
	</g>
	<g>
		<g>
			<path class="st2" d="M159.3,1140.5c-21.9-22-39.4-48-51.5-76.7c-0.7-1.8-3.6-1-2.9,0.8c12.3,29.1,30,55.6,52.3,78
				C158.6,1144,160.7,1141.9,159.3,1140.5L159.3,1140.5z"/>
		</g>
	</g>
	<g>
		<g>
			<path class="st2" d="M93.9,1003.1c29.9,34.4,55.5,72.2,76.3,112.7c0.8,1.5,3.3,0.5,2.7-1.2c-2.7-7.7-6.5-14.8-11.3-21.4
				c-1.1-1.5-3.7-0.1-2.6,1.5c4.6,6.4,8.3,13.2,11,20.7c0.9-0.4,1.8-0.8,2.7-1.2c-20.9-40.7-46.7-78.8-76.8-113.4
				C94.8,999.5,92.7,1001.6,93.9,1003.1L93.9,1003.1z"/>
		</g>
	</g>
	<g>
		<g>
			<path class="st2" d="M126.8,1022.5c25.3,23.9,45.6,52.6,59.8,84.3c0.7,1.5,3.4,0.4,2.7-1.2c-2-5.2-4.1-10.4-6.1-15.6
				c-0.7-1.8-3.6-1-2.9,0.8c2,5.2,4.1,10.4,6.1,15.6c0.9-0.4,1.8-0.8,2.7-1.2c-14.3-32-34.8-60.8-60.3-84.9
				C127.5,1019,125.4,1021.2,126.8,1022.5L126.8,1022.5z"/>
		</g>
	</g>
	<g>
		<g>
			<path class="st2" d="M179.4,1074.4c-1-2.2-0.5-4.2,1.4-6c-0.7,0-1.4,0-2.1,0c10.7,13,18.6,27.8,23.4,43.8
				c0.6,1.8,3.5,1.1,2.9-0.8c-5-16.6-13.2-31.8-24.2-45.1c-0.5-0.6-1.6-0.5-2.1,0c-2.5,2.5-3.3,5.5-2.2,8.9
				C177.1,1077,180,1076.2,179.4,1074.4L179.4,1074.4z"/>
		</g>
	</g>
	<g>
		<g>
			<path class="st2" d="M1244.5,1109.3c-2.9-13.4-4.4-27-4.3-40.6c0-4.6,1.4-41.6,7.8-39.6c1.8,0.6,2.6-2.3,0.8-2.9
				c-4.4-1.4-6.8,3-7.8,6.7c-2.2,8.1-2.9,17.2-3.4,25.5c-1.1,17.4,0.3,34.8,4,51.8C1242,1112,1244.9,1111.2,1244.5,1109.3
				L1244.5,1109.3z"/>
		</g>
	</g>
	<g>
		<g>
			<path class="st2" d="M1257.9,1068c4.5-45.8,14-92.9,41.5-130.9c-0.9-0.4-1.8-0.8-2.7-1.2c-5.3,37.9-10.6,75.9-15.9,113.8
				c-0.3,1.9,2.5,2.7,2.9,0.8c3.2-15,8.8-29.2,16.8-42.4c-0.9-0.3-1.9-0.5-2.8-0.8c0.5,11.9,0.1,23.7-1.5,35.5
				c-0.2,1.5,2.2,2.1,2.8,0.8c3-6.2,4.7-12.6,5.4-19.5c0.2-1.9-2.8-1.9-3,0c-0.6,6.3-2.3,12.3-5,18c0.9,0.3,1.9,0.5,2.8,0.8
				c1.5-11.8,2-23.6,1.5-35.5c-0.1-1.5-2-2.1-2.8-0.8c-8.1,13.3-13.8,27.8-17.1,43.1c1,0.3,1.9,0.5,2.9,0.8
				c5.3-37.9,10.6-75.9,15.9-113.8c0.2-1.7-1.7-2.6-2.7-1.2c-27.8,38.5-37.3,86.1-41.9,132.4C1254.7,1070,1257.7,1069.9,1257.9,1068
				L1257.9,1068z"/>
		</g>
	</g>
	<g>
		<g>
			<path class="st2" d="M1341.4,950.6c-10.1,42.6-20.4,85.1-30.9,127.5c-0.5,1.9,2.4,2.7,2.9,0.8c10.6-42.4,20.9-84.9,30.9-127.5
				C1344.8,949.5,1341.9,948.7,1341.4,950.6L1341.4,950.6z"/>
		</g>
	</g>
	<g>
		<g>
			<path class="st2" d="M1324.8,1058.9c-1.9,11.6-3.8,23.3-5.7,34.9c-0.3,1.9,2.6,2.7,2.9,0.8c1.9-11.6,3.8-23.3,5.7-34.9
				C1328,1057.8,1325.1,1057,1324.8,1058.9L1324.8,1058.9z"/>
		</g>
	</g>
	<g>
		<g>
			<path class="st2" d="M95,304.6c15.1-14.6,34.5-27.6,56.1-28.7c22.1-1.2,38.4,12.7,55.3,24.8c29.6,21.2,66.7,28.7,102.4,21.3
				c19.5-4.1,37.8-12.6,53.3-25.1c1.5-1.2-0.6-3.3-2.1-2.1c-29.9,24.2-70.9,32.5-108.2,23.7c-19-4.5-34.9-13.6-50.4-25.1
				c-15.8-11.7-32.2-22.2-52.6-20.3c-21.5,2-40.7,14.8-55.9,29.5C91.5,303.9,93.6,306,95,304.6L95,304.6z"/>
		</g>
	</g>
	<g>
		<g>
			<path class="st2" d="M567.5,307.4c33.4,19.3,74.4,23.3,111,10.8c1.8-0.6,1-3.5-0.8-2.9c-35.8,12.3-75.9,8.5-108.7-10.5
				C567.3,303.9,565.8,306.5,567.5,307.4L567.5,307.4z"/>
		</g>
	</g>
	<g>
		<g>
			<path class="st2" d="M307.8,273.4c13.1-4.4,21.9-14.9,29.9-25.7c9.6-13,18.7-25.6,33.5-33.2c15-7.8,33-10.2,49.5-6.2
				c16,3.8,29,14,42.3,23c12,8.1,25.1,15.8,40.1,16c14.5,0.2,27.6-7,39.7-14.2c13.3-7.9,26.9-17,42.9-17.9
				c14.1-0.8,27.6,4.5,40,10.7c25.4,12.9,52.3,34.7,82.6,27.3c1.9-0.5,1.1-3.4-0.8-2.9c-28.2,6.9-53.9-13.1-77.4-25.5
				c-11.6-6.1-23.9-11.5-37-12.5c-14.2-1.2-27.2,4-39.4,10.8c-13.3,7.5-26.1,17.2-41.3,20.3c-16.7,3.4-31.8-4.1-45.3-13.1
				c-12.8-8.5-25.1-18.4-39.9-23.4c-14.2-4.7-29.8-4.6-44.1-0.4c-16.3,4.8-29.1,14.9-39.4,28.2c-10.3,13.4-19.5,30.1-36.6,35.7
				C305.2,271.2,306,274,307.8,273.4L307.8,273.4z"/>
		</g>
	</g>
	<g>
		<g>
			<path class="st2" d="M898.8,321.9c13.5,0.6,23.8,7.6,31.5,18.3c5.8,8,11.4,16.3,21.1,20c21.7,8.2,42.4-6.6,58.6-19.4
				c1.5-1.2-0.6-3.3-2.1-2.1C991,352,964,370.3,943.7,352.2c-7.5-6.7-11.6-16.4-19.2-23.1c-7.2-6.3-16.3-9.7-25.8-10.1
				C896.8,318.9,896.9,321.9,898.8,321.9L898.8,321.9z"/>
		</g>
	</g>
	<g>
		<g>
			<path class="st2" d="M1277.5,303.6c13.4-12.2,31.5-26.6,50.3-16.7c14.7,7.7,23.3,23.6,36.2,33.6c12.1,9.4,27.4,15.6,43,13
				c15.6-2.6,28.3-13.1,37.8-25.2c5.7-7.3,12.3-16,22.7-14.5c10.5,1.4,18.3,11.3,24.2,19.3c1.1,1.5,3.7,0,2.6-1.5
				c-8.2-11.1-21.6-26.2-37-19.2c-7.1,3.3-11.6,10.2-16.4,16.1c-5.9,7.2-13,13.6-21.4,17.8c-19.2,9.6-40.1,3.2-55.8-9.9
				c-12.6-10.5-21.5-26.8-37.2-33.4c-19.4-8.1-37.4,6.2-51,18.6C1274,302.8,1276.1,304.9,1277.5,303.6L1277.5,303.6z"/>
		</g>
	</g>
	<g>
		<g>
			<path class="st2" d="M1190.9,249.8c7.7,14.2,27,10.5,37.6,2.2c8.1-6.4,14-15.1,21.9-21.8c8.7-7.4,20.9-12.7,32.4-10.5
				c16.9,3.3,24.3,24.9,41.7,25.9c14.8,0.9,22.3-14.8,31-23.9c3-3,6.3-5.8,10.5-7c7.4-2.1,14.7,1.6,21.2,4.8
				c13.5,6.6,26.9,13.3,40.3,19.9c1.7,0.9,3.2-1.7,1.5-2.6c-11.7-5.8-23.3-11.5-35-17.3c-8.6-4.2-18.4-10.5-28.4-7.9
				c-13.3,3.5-18.8,18.5-28.8,26.6c-16.9,13.7-30-8.4-42.6-16.8c-15.2-10.1-34.6-3.6-47.2,7.7c-8.8,7.9-15.4,18.7-26.1,24.3
				c-8.8,4.6-22.3,4.7-27.6-5.1C1192.6,246.6,1190,248.1,1190.9,249.8L1190.9,249.8z"/>
		</g>
	</g>
	<g>
		<g>
			<path class="st2" d="M134,537.6c8.8-11,20.4-23,35.4-23.7c15.4-0.6,27.5,11.4,36.7,22.4c8.1,9.8,15.9,20.6,27.2,27
				c11.8,6.7,25.8,6.5,38.4,2.1c15.4-5.4,27.8-16.4,39.7-27c1.4-1.3-0.7-3.4-2.1-2.1c-11.8,10.4-24,21.4-39.2,26.5
				c-15.5,5.2-31.1,2.9-43.5-8c-17.9-15.7-31.9-47.6-60.4-43.5c-14.5,2-25.6,13.4-34.3,24.2C130.6,536.9,132.7,539.1,134,537.6
				L134,537.6z"/>
		</g>
	</g>
	<circle class="st3" cx="581.5" cy="149.8" r="10.3"/>
	<circle class="st3" cx="951.9" cy="500.4" r="5.1"/>
	<circle class="st3" cx="1423.1" cy="450.4" r="6.3"/>
	<circle class="st3" cx="199" cy="662.8" r="11.1"/>
	<circle class="st4" cx="236.1" cy="491.9" r="8.6"/>
	<circle class="st4" cx="1073.6" cy="321.8" r="14.5"/>
	<circle class="st4" cx="696.2" cy="489.1" r="5.8"/>
	<circle class="st4" cx="1244.1" cy="107.9" r="10.8"/>
	<circle class="st4" cx="1377.8" cy="514.1" r="14.5"/>
</g>
<g id="items">
	<path class="st0" d="M844,1013.6c-3,0-8.6,0.5-13.7,4.1c-6.7,4.8-8.5,12.4-10.2,19.9c-1.5,6.6-3.1,13.6-0.5,22.1
		c3.7,11.6,12.9,17.6,15.5,19.3c14.5,9.1,30.3,5.1,36.8,3.4c6.4-1.6,13.4-3.4,18.9-9.9c6.8-8.1,6.6-17.9,6.5-21.1
		c-0.1-3.8-2.5-10.3-7.3-23.1c-1.7-4.6-2.7-6.8-4.9-8.8c-4.9-4.4-11.8-4.3-15.1-4c1.6-0.6,4.6-1.9,7.2-4.8c3.4-3.8,4-8,4.3-9.7
		c0.7-4.9-0.7-8.8-1.4-10.6c-2.8,1.8-6.2,4.4-9.6,8c-6.1,6.7-9,13.8-10.4,18.2c-0.3-9.8-0.6-19.5-0.8-29.3c-2.1-1.4-4.1-2.8-6.2-4.2
		c-0.3,8.4-0.5,16.9-0.8,25.3c-1.7-5.9-4.4-9.2-6.5-11.1c-1.8-1.6-3.1-2.2-11.9-7.4c-2.5-1.5-4.6-2.7-5.9-3.5c2,4.8,4.6,10.3,8.1,16
		C838.8,1006.7,841.4,1010.4,844,1013.6z"/>
	<path class="st0" d="M917,935.7c-1.3,1.7-1.3,4-0.2,5.7c1.2,1.9,3.6,2.8,5.8,2.1c-1.6,0.9-3.7,2.4-5.7,4.4
		c-1.6,1.6-2.8,3.2-3.6,4.6c2.1-2.8,6.1-3.1,8.3-1.1c1.8,1.7,2.1,4.8,0.5,7.2c6.9,1.9,14.8,3.5,23.5,4.5c18.8,2.2,35.1,0.6,47.4-1.6
		c6.9-1,16.1-3.4,25.5-8.8c2.9-1.7,5.5-3.4,7.8-5.2c0.6-0.9,1.5-2.6,1.5-4.9c-0.1-5.2-5.2-8.1-5.4-8.2c0.6-0.3,2.3-1.3,3.2-3.4
		c1.4-3.3-0.5-6.4-0.7-6.7c-5.3-0.7-10.8-1.3-16.3-1.8c-11-1.1-21.6-1.8-31.8-2.3c-12.1,3.4-24.4,6.7-36.9,9.9
		C932.1,932,924.5,933.9,917,935.7z"/>
	<path class="st0" d="M795.3,632.5c0.2,1.2,0.3,2.4,0.2,3.6c0.2-1.2,0.2-2.3-0.2-3.4C795.3,632.6,795.3,632.5,795.3,632.5z"/>
	<path class="st0" d="M930.8,721.6c-1.1-20.9-1.5-41.1-1.4-60.6c-4.6-0.6-9.3-1.3-14.1-2.1c-14.3-2.2-28.1-4.9-41.2-7.7
		c-1.1-10.5-2.2-21-3.3-31.5c-14.1-3.6-26.1-6-35.2-7.6c-43.1-7.5-59.7-4.1-70.9,0c-2.5,0.9-4.6,1.8-5.9,2.4
		c-0.4,19.6-0.9,39.1-1.3,58.7c-9.9,4.2-19.9,8.3-29.8,12.5c-0.1,5.8-0.1,11.6-0.2,17.5c-0.2,22.9,0,45.4,0.4,67.6
		c6.3,4.5,11.9,7.9,15.8,10.2c6.4,3.7,23.9,13.3,48.7,19.9c5.3,1.4,9.7,2.4,12.6,2.9c2.8-1.2,6.8-2.9,11.7-5
		c33-14.2,60.6-27.8,81.6-38.6c8.9-4.6,20.4-10.7,33.8-18.1C931.5,735.4,931.1,728.5,930.8,721.6z M812.4,659.6
		c-0.5,1.5-1.4,2.1-1.8,2.4c-2.1,1.3-5.5,0.7-8.2-1.9c-12.4,3.5-24.9,7-37.3,10.5c-0.1-18.8-0.3-37.6-0.4-56.4
		c11.6-1.8,26.7-3,44.3-1.6c19.2,1.6,35.1,6,46.7,10.1c1.8,9.3,3.6,18.7,5.4,28C844.9,653.7,828.7,656.7,812.4,659.6z"/>
	<g>
		<g>
			<path class="st1" d="M844.4,1012.1c-12.3-1.8-20.2,8.2-23.9,18.7c-4.4,12.5-5.9,27,2,38.5c15.7,22.8,46.5,19.2,67.3,6.5
				c1.6-1,0.1-3.6-1.5-2.6c-18.2,11.1-43.5,15.5-59.9-1.4c-8.4-8.7-9.9-20.4-7.4-31.8c2.4-10.9,8.5-27,22.5-25
				C845.5,1015.3,846.3,1012.4,844.4,1012.1L844.4,1012.1z"/>
		</g>
	</g>
	<g>
		<g>
			<path class="st1" d="M847.1,1011.4c-9.1-5.9-13.6-16-17.7-25.7c-0.8,0.6-1.6,1.2-2.4,1.8c4.3,3.5,9.9,4.5,14.4,7.7
				c6,4.3,9.1,11.5,9,18.8c0,1.9,3,1.9,3,0c0.1-6.3-1.8-12.4-5.9-17.2c-5-6-12.5-6.7-18.3-11.4c-1.4-1.1-3,0.2-2.4,1.8
				c4.4,10.2,9.2,20.5,18.8,26.8C847.2,1015.1,848.7,1012.5,847.1,1011.4L847.1,1011.4z"/>
		</g>
	</g>
	<g>
		<g>
			<path class="st1" d="M854.5,1012.5c1.2-9.8,1.2-19.6,0.1-29.5c-0.9,0.3-1.9,0.5-2.8,0.8c0.9,1.2,1.7,1.8,3,2.5
				c3.7,1.8,3.3,4.5,3.3,8.3c0,6.8,0,13.6,0,20.4c0,1.9,3,1.9,3,0c0-8.1,0.2-16.2,0.1-24.3c0-1.8,0-3.5-1.2-4.9
				c-1.5-1.8-4.2-1.7-5.6-3.5c-0.8-1-3-0.9-2.8,0.8c1.1,9.8,1.1,19.6-0.1,29.5C851.3,1014.5,854.3,1014.4,854.5,1012.5L854.5,1012.5
				z"/>
		</g>
	</g>
	<g>
		<g>
			<path class="st1" d="M863.2,1015c0.1-3.2,0.1-7,2.5-9.6c2-2.1,5.2-3.4,7.5-5.2c3.7-3,6.7-6.6,9.1-10.7c-0.9-0.4-1.8-0.8-2.7-1.2
				c-2,5,1.4,10,0,15.2c-1.7,6.3-7.6,10.9-14.1,11.1c-1.9,0.1-1.9,3.1,0,3c6-0.2,11.3-3.2,14.6-8.1c1.6-2.4,2.7-5.2,2.9-8.1
				c0.4-4.1-2.1-8.3-0.5-12.2c0.6-1.6-1.9-2.6-2.7-1.2c-1.7,2.9-3.8,5.6-6.2,8c-2.7,2.5-5.8,3.9-8.6,6.1c-4.1,3.2-4.6,7.9-4.7,12.8
				C860.1,1016.9,863.1,1016.9,863.2,1015L863.2,1015z"/>
		</g>
	</g>
	<g>
		<g>
			<path class="st1" d="M872.7,1017c11.9,0.2,20.2,13.3,22.4,23.8c2.4,11.6-0.9,23.2-6.9,33.1c-1,1.7,1.6,3.2,2.6,1.5
				c7-11.4,10.4-25.3,6.4-38.4c-3.2-10.8-12.2-22.8-24.5-23C870.8,1014,870.8,1017,872.7,1017L872.7,1017z"/>
		</g>
	</g>
	<g>
		<g>
			<path class="st1" d="M845.4,1015.3c7.2,2.7,14.5,3.6,22.1,2.7c1.9-0.2,1.9-3.2,0-3c-7.3,0.9-14.4,0-21.3-2.6
				C844.3,1011.8,843.6,1014.7,845.4,1015.3L845.4,1015.3z"/>
		</g>
	</g>
	<g>
		<g>
			<path class="st1" d="M915.3,937.3c-2.2,3.9,1,6.2,4.5,7.1c7.1,1.9,14.5,2.9,21.8,3.8c15.9,2,32,2.3,48.1,0.9c1.9-0.2,1.9-3.2,0-3
				c-11.9,1-23.9,1.2-35.8,0.3c-6.1-0.4-12.3-1.1-18.4-2.1c-3.1-0.5-6.2-1-9.3-1.7c-1.1-0.2-9.8-1.3-8.3-3.9
				C918.8,937.1,916.2,935.6,915.3,937.3L915.3,937.3z"/>
		</g>
	</g>
	<g>
		<g>
			<path class="st1" d="M917.6,938.2c12.9,0.3,25.3,2.5,38.1,4.3c11.6,1.7,23.1,0.7,34.6-0.6c1.9-0.2,1.9-3.2,0-3
				c-12.6,1.3-24.8,2.2-37.4,0.1c-11.8-1.9-23.4-3.5-35.3-3.8C915.7,935.1,915.7,938.1,917.6,938.2L917.6,938.2z"/>
		</g>
	</g>
	<g>
		<g>
			<path class="st1" d="M988.9,940.5c-0.3,2.2-0.1,4.4,0.7,6.5c0.6,1.8,3.5,1,2.9-0.8c-0.7-1.9-0.8-3.7-0.6-5.7
				c0.1-0.8-0.8-1.5-1.5-1.5C989.5,939,989,939.7,988.9,940.5L988.9,940.5z"/>
		</g>
	</g>
	<g>
		<g>
			<path class="st1" d="M917.4,937.1c20-4.9,40-10.1,59.8-15.6c1.9-0.5,1.1-3.4-0.8-2.9c-19.8,5.6-39.8,10.8-59.8,15.6
				C914.7,934.7,915.5,937.6,917.4,937.1L917.4,937.1z"/>
		</g>
	</g>
	<g>
		<g>
			<path class="st1" d="M976.8,920.9c15.8,2,31.6,3.2,47.5,3.7c1.9,0.1,1.9-2.9,0-3c-15.9-0.5-31.8-1.8-47.5-3.7
				C974.9,917.6,974.9,920.6,976.8,920.9L976.8,920.9z"/>
		</g>
	</g>
	<g>
		<g>
			<path class="st1" d="M990.7,941.6c12.6-2.5,24.2-7.6,34.6-15.2c1.5-1.1,0.1-3.7-1.5-2.6c-10.2,7.4-21.6,12.4-33.9,14.9
				C988,939.1,988.8,942,990.7,941.6L990.7,941.6z"/>
		</g>
	</g>
	<g>
		<g>
			<path class="st1" d="M992.8,949.2c12.8-1.9,24.5-7.6,34-16.4c1.4-1.3-0.7-3.4-2.1-2.1c-9.2,8.5-20.4,13.8-32.7,15.7
				C990.1,946.6,990.9,949.5,992.8,949.2L992.8,949.2z"/>
		</g>
	</g>
	<g>
		<g>
			<path class="st1" d="M1025,929.1c1.9,0,1.9-3,0-3C1023.1,926.1,1023.1,929.1,1025,929.1L1025,929.1z"/>
		</g>
	</g>
	<g>
		<g>
			<path class="st1" d="M1023.4,924.2c0.3,2.7,0.6,5.4,0.8,8.1c0.2,1.9,3.2,1.9,3,0c-0.3-2.7-0.6-5.4-0.8-8.1
				C1026.2,922.3,1023.2,922.3,1023.4,924.2L1023.4,924.2z"/>
		</g>
	</g>
	<g>
		<g>
			<path class="st1" d="M921,944.3c-4.1,1.3-7,3.7-9,7.5c-0.7,1.4,0.7,2.6,2.1,2.1c6.2-2.7,9.3,0.7,14.6,2.7
				c3.9,1.5,8.6,0.9,12.7,0.9c10.6,0,21.1,0,31.7-0.1c9,0,18.9,1.2,27.6-1.7c9.4-3.2,18.7-7,28-10.4c1.8-0.7,1-3.6-0.8-2.9
				c-9.5,3.6-19,7.5-28.7,10.7c-4.9,1.6-10,1.3-15.1,1.3c-5.6,0-11.2,0-16.8,0c-10.5,0-21.1,0.3-31.7,0.1c-3.3-0.1-5.5-0.7-8.4-2.2
				c-1.8-0.9-3.3-1.8-5.3-2.2c-3.3-0.7-6.3-0.1-9.3,1.2c0.7,0.7,1.4,1.4,2.1,2.1c1.6-3.1,3.9-5.1,7.2-6.1
				C923.6,946.6,922.8,943.7,921,944.3L921,944.3z"/>
		</g>
	</g>
	<g>
		<g>
			<path class="st1" d="M1021,935.1c1.8,2.7,3.6,5.5,5.4,8.2c1.1,1.6,3.7,0.1,2.6-1.5c-1.8-2.7-3.6-5.5-5.4-8.2
				C1022.6,932,1020,933.5,1021,935.1L1021,935.1z"/>
		</g>
	</g>
	<g>
		<g>
			<path class="st1" d="M920.5,953.5c0.8,1.5,0.8,3,0.1,4.7c-0.3,0.8,0.3,1.5,1,1.8c10.7,4.4,22.5,4.7,33.9,4.9
				c12.5,0.2,25-0.5,37.4-1.9c1.9-0.2,1.9-3.2,0-3c-11.8,1.4-23.6,2.1-35.5,2c-11.8-0.1-23.9-0.3-35-4.8c0.3,0.6,0.7,1.2,1,1.8
				c0.7-2.3,0.7-4-0.1-6.3C922.7,950.9,919.8,951.7,920.5,953.5L920.5,953.5z"/>
		</g>
	</g>
	<g>
		<g>
			<path class="st1" d="M991.2,955.9c0.3,1.7,0.7,3.4,1,5c0.4,1.9,3.3,1.1,2.9-0.8c-0.3-1.7-0.7-3.4-1-5
				C993.7,953.3,990.8,954.1,991.2,955.9L991.2,955.9z"/>
		</g>
	</g>
	<g>
		<g>
			<path class="st1" d="M994.3,962.8c10.9-5.3,23.8-5.8,33-14.2c1.4-1.3-0.7-3.4-2.1-2.1c-8.9,8.2-21.9,8.6-32.4,13.8
				C991.1,961.1,992.6,963.6,994.3,962.8L994.3,962.8z"/>
		</g>
	</g>
	<g>
		<g>
			<path class="st1" d="M726.2,686.6c-0.4,15.7-0.7,31.5-0.9,47.2c-0.1,7.9-0.1,15.8-0.1,23.6c0,5-1.3,12,2.7,15.9
				c4.3,4.1,10.9,6.8,16.1,9.6c6.3,3.3,12.7,6.4,19.2,9.1c12.9,5.5,26.3,9.9,39.9,13.2c1.9,0.5,2.7-2.4,0.8-2.9
				c-12.7-3.1-25.1-7.1-37.1-12c-11.8-4.9-24.5-10.4-35-17.8c-4.1-2.9-3.6-6.7-3.6-11.2c0-3.3,0-6.6,0-9.8c0-7.2,0.1-14.4,0.1-21.7
				c0.2-14.4,0.4-28.9,0.8-43.3C729.3,684.6,726.3,684.6,726.2,686.6L726.2,686.6z"/>
		</g>
	</g>
	<g>
		<g>
			<path class="st1" d="M802.5,706.1c-3.5,32.1-3.8,64.5-0.9,96.6c0.2,1.9,3.2,1.9,3,0c-3-32.2-2.7-64.5,0.9-96.6
				C805.7,704.2,802.7,704.2,802.5,706.1L802.5,706.1z"/>
		</g>
	</g>
	<g>
		<g>
			<path class="st1" d="M805.3,805.3c43.5-18.3,86.1-39,127.4-61.8c1.7-0.9,0.2-3.5-1.5-2.6c-41.1,22.7-83.4,43.3-126.7,61.5
				C802.8,803.1,803.5,806,805.3,805.3L805.3,805.3z"/>
		</g>
	</g>
	<g>
		<g>
			<path class="st1" d="M876,684.6c18.6-6.2,37-13.1,55.1-20.5c1.8-0.7,1-3.6-0.8-2.9c-18.1,7.4-36.5,14.3-55.1,20.5
				C873.4,682.3,874.2,685.2,876,684.6L876,684.6z"/>
		</g>
	</g>
	<g>
		<g>
			<path class="st1" d="M804.1,705.2c19.5-4.7,38.8-10.1,58-16.1c1.8-0.6,1.1-3.5-0.8-2.9c-19.1,6-38.5,11.4-58,16.1
				C801.4,702.8,802.2,705.7,804.1,705.2L804.1,705.2z"/>
		</g>
	</g>
	<g>
		<g>
			<path class="st1" d="M928.5,664.1c-0.1,12.9,0,25.7,0.3,38.6c0.1,6.3,0.3,12.5,0.5,18.8c0.1,3.3,0.2,6.6,0.4,9.9
				c0.1,1.7,1.2,7.2,0.1,8.3c0.6-0.1,1.2-0.2,1.8-0.2c0.1,0.2,0.3,0.4,0.4,0.6c-0.5,0.5-1,1-1.5,1.5c0.1,0,0.2,0,0.3,0
				c1.9-0.2,1.9-3.2,0-3c-0.1,0-0.2,0-0.3,0c-0.8,0.1-1.5,0.6-1.5,1.5c0,1,0.2,1.5,1.1,2c0.6,0.3,1.4,0.2,1.8-0.2
				c1.1-1.2,1-1.9,1-3.5c0-3.6-0.3-7.3-0.4-10.9c-0.3-6.9-0.5-13.9-0.6-20.8c-0.3-14.2-0.4-28.4-0.4-42.6
				C931.5,662.1,928.5,662.1,928.5,664.1L928.5,664.1z"/>
		</g>
	</g>
	<g>
		<g>
			<path class="st1" d="M727.1,687.2c24.4,10.2,50.2,16.6,76.6,19.1c1.9,0.2,1.9-2.8,0-3c-26.1-2.5-51.6-8.9-75.8-19
				C726.1,683.6,725.4,686.5,727.1,687.2L727.1,687.2z"/>
		</g>
	</g>
	<g>
		<g>
			<path class="st1" d="M728.7,684.6c23.7-6.6,47.2-13.7,70.5-21.3c1.8-0.6,1-3.5-0.8-2.9c-23.4,7.6-46.9,14.7-70.5,21.3
				C726,682.2,726.8,685.1,728.7,684.6L728.7,684.6z"/>
		</g>
	</g>
	<g>
		<g>
			<path class="st1" d="M799.7,662.5c20.1,6.5,41.2,8.5,62.1,11c1.9,0.2,1.9-2.8,0-3c-20.6-2.4-41.4-4.4-61.3-10.8
				C798.6,659,797.8,661.9,799.7,662.5L799.7,662.5z"/>
		</g>
	</g>
	<g>
		<g>
			<path class="st1" d="M803.3,703.8c20.2-8.4,39.9-17.9,59.1-28.5c1.7-0.9,0.2-3.5-1.5-2.6c-18.9,10.5-38.4,19.9-58.3,28.2
				C800.8,701.6,801.5,704.5,803.3,703.8L803.3,703.8z"/>
		</g>
	</g>
	<g>
		<g>
			<path class="st1" d="M801.5,704.9c3.3-4,9.6-5.9,14.2-8.2c5-2.5,10.1-5.1,15.1-7.6c10.1-5.1,20.1-10.2,30.2-15.2
				c1.7-0.9,0.2-3.5-1.5-2.6c-10.6,5.4-21.3,10.8-31.9,16.1c-5,2.5-10.1,5.1-15.1,7.6c-4.3,2.2-9.8,4-13,7.8
				C798.1,704.2,800.2,706.4,801.5,704.9L801.5,704.9z"/>
		</g>
	</g>
	<g>
		<g>
			<path class="st1" d="M727.6,685.7c23.4,9,47.7,14.9,72.5,17.8c1.9,0.2,1.9-2.8,0-3c-24.6-2.8-48.6-8.8-71.7-17.7
				C726.6,682.1,725.8,685,727.6,685.7L727.6,685.7z"/>
		</g>
	</g>
	<g>
		<g>
			<path class="st1" d="M811.4,665.9c1.8-1.9,2.8-3.8,3.3-6.4c-0.7,0.3-1.5,0.6-2.2,0.9c7.6,3.4,15.5,1.5,23.4,3
				c8.6,1.6,16.8,4.4,25.6,5.2c1.9,0.2,1.9-2.8,0-3c-8.5-0.8-16.4-3.5-24.8-5.1c-7.5-1.5-15.6,0.5-22.7-2.7c-0.8-0.4-2-0.1-2.2,0.9
				c-0.4,2-1.2,3.5-2.6,5.1C807.9,665.2,810.1,667.3,811.4,665.9L811.4,665.9z"/>
		</g>
	</g>
	<g>
		<g>
			<path class="st1" d="M874.8,669.1c9.2-0.2,18.4-0.8,27.6-1.7c3.9-0.4,7.8-0.9,11.8-1.4c2.2-0.3,4.4-0.6,6.6-1
				c1.3-0.2,2.5-0.4,3.8-0.6c1.6,0.1,2.7-0.6,3.4-2.1c0.6-0.1,1.2-0.2,1.8-0.2c-0.1,0-0.2-0.1-0.3-0.1c-1.7-0.8-3.3,1.8-1.5,2.6
				c0.1,0,0.2,0.1,0.3,0.1c0.6,0.3,1.3,0.2,1.8-0.2c0.6-0.6,0.8-1,0.8-1.8c0-0.5-0.3-1.1-0.7-1.3c-2.5-1.3-5.7,0.1-8.2,0.6
				c-5.5,0.9-11,1.7-16.6,2.3c-10.1,1.1-20.3,1.8-30.4,2C872.9,666.2,872.9,669.2,874.8,669.1L874.8,669.1z"/>
		</g>
	</g>
	<g>
		<g>
			<path class="st1" d="M812,661.1c16,5.3,33,4.6,49.5,7c1.9,0.3,2.7-2.6,0.8-2.9c-16.5-2.5-33.5-1.8-49.5-7
				C811,657.6,810.2,660.5,812,661.1L812,661.1z"/>
		</g>
	</g>
	<g>
		<g>
			<path class="st1" d="M814.2,659.4c15.1-2.1,30.3-4.2,45.4-6.3c1.9-0.3,1.1-3.2-0.8-2.9c-15.1,2.1-30.3,4.2-45.4,6.3
				C811.5,656.8,812.3,659.7,814.2,659.4L814.2,659.4z"/>
		</g>
	</g>
	<g>
		<g>
			<path class="st1" d="M875.8,670.6c17.1-0.2,34-2.8,50.9-5.5c1.9-0.3,1.1-3.2-0.8-2.9c-16.6,2.7-33.2,5.2-50.1,5.4
				C873.9,667.6,873.9,670.6,875.8,670.6L875.8,670.6z"/>
		</g>
	</g>
	<g>
		<g>
			<path class="st1" d="M813.8,663.1c16.2-0.1,31.7,5.1,47.6,6.9c1.9,0.2,1.9-2.8,0-3c-16-1.7-31.4-7-47.6-6.9
				C811.9,660.1,811.9,663.1,813.8,663.1L813.8,663.1z"/>
		</g>
	</g>
	<g>
		<g>
			<path class="st1" d="M873.6,652.6c9.5,1.3,18.8,3.9,28.3,5.4c9,1.5,18.5,0.9,27,4.3c1.8,0.7,2.6-2.2,0.8-2.9
				c-8.6-3.5-18-2.9-27-4.3c-9.5-1.6-18.8-4.1-28.3-5.4C872.5,649.5,871.7,652.4,873.6,652.6L873.6,652.6z"/>
		</g>
	</g>
	<g>
		<g>
			<path class="st1" d="M759.7,671.2c-1.8-14.6-1.5-29.3-1.3-44c0-3.2-1-7.9,1.4-10.1c2.5-2.2,7.4-2.2,10.6-2.7
				c7.7-1.1,15.5-1.7,23.3-1.7c14.2-0.1,28.4,1.6,42.2,5.1c3.5,0.9,6.9,1.9,10.4,3c3,0.9,7.9,1.6,9.8,4.2c1.7,2.3,1.9,7.4,2.3,10.2
				c0.5,3.3,0.9,6.6,1.6,9.9c0.4,1.9,3.3,1.1,2.9-0.8c-0.8-3.8-1.2-7.7-1.8-11.6c-0.5-3-0.8-8-2.8-10.5c-1.5-1.8-5.5-2.4-7.7-3.2
				c-4-1.4-8-2.6-12-3.6c-15.7-4.1-32.1-6-48.4-5.6c-8.1,0.2-16.2,1-24.2,2.3c-5.2,0.9-10,0.8-10.5,6.8c-0.7,8.5-0.3,17.5-0.2,26
				c0,8.8,0.4,17.5,1.5,26.2C757,673.1,760,673.1,759.7,671.2L759.7,671.2z"/>
		</g>
	</g>
	<g>
		<g>
			<path class="st1" d="M765.8,671.3c0.2-18.9,0.5-37.7,0.7-56.6c0-1.9-3-1.9-3,0c-0.2,18.9-0.5,37.7-0.7,56.6
				C762.7,673.2,765.7,673.2,765.8,671.3L765.8,671.3z"/>
		</g>
	</g>
	<g>
		<g>
			<path class="st1" d="M759.4,615.9c16.4-7.9,37.1-5,54.7-4.1c18.7,1,37.4,3.2,55.2,9.5c1.8,0.6,2.6-2.3,0.8-2.9
				c-18.6-6.5-38.2-8.7-57.8-9.7c-17.8-0.9-37.8-3.4-54.4,4.6C756.1,614.1,757.7,616.7,759.4,615.9L759.4,615.9z"/>
		</g>
	</g>
	<g>
		<g>
			<path class="st1" d="M873.7,681.7c0,2.1,0.1,4.1,0.1,6.2c0,1.9,3,1.9,3,0c0-2.1-0.1-4.1-0.1-6.2
				C876.7,679.8,873.7,679.8,873.7,681.7L873.7,681.7z"/>
		</g>
	</g>
	<g>
		<g>
			<path class="st1" d="M869.2,619.7c1.1,8.7,1.9,17.4,2.7,26.1c0.2,1.9,3.2,1.9,3,0c-0.7-8.7-1.6-17.4-2.7-26.1
				C872,617.8,869,617.8,869.2,619.7L869.2,619.7z"/>
		</g>
	</g>
	<g>
		<g>
			<path class="st1" d="M860.3,643.9c1.2,15.9,1.9,31.8,1.9,47.7c0,1.9,3,1.9,3,0c0-15.9-0.7-31.8-1.9-47.7
				C863.1,642,860.1,642,860.3,643.9L860.3,643.9z"/>
		</g>
	</g>
	<g>
		<g>
			<path class="st1" d="M872,645.9c0.8,13.2,1.3,26.4,1.4,39.7c0,1.9,3,1.9,3,0c-0.2-13.2-0.6-26.5-1.4-39.7
				C874.9,644,871.9,644,872,645.9L872,645.9z"/>
		</g>
	</g>
	<g>
		<g>
			<path class="st1" d="M862.3,689.7c0,8.5-0.1,17.1,0,25.6c0.1,5.8,2.6,4.8,7.8,3.9c5.6-0.9,9.2-0.3,8.4-6.5
				c-1.1-8.7-1.5-17.4-1.1-26.2c0.1-1.9-2.9-1.9-3,0c-0.2,5.7-0.2,11.3,0.2,17c0.2,2.8,0.6,5.6,0.8,8.5c0,0.5,0.3,1.8,0.2,2.3
				c0.3,0.9,0.1,1.3-0.9,1.1c-0.9,0.2-1.8,0.3-2.7,0.5c-0.9,0.2-6.2,1.8-6.7,1.4c-0.6-0.4,0-7.8,0-8.9c0-6.2,0-12.5,0-18.7
				C865.3,687.8,862.3,687.8,862.3,689.7L862.3,689.7z"/>
		</g>
	</g>
	<g>
		<g>
			<path class="st1" d="M749.6,687.2c14,4.4,28.3,7.5,42.9,9.4c1.9,0.3,1.9-2.8,0-3c-14.3-1.9-28.3-5-42.1-9.3
				C748.5,683.7,747.7,686.6,749.6,687.2L749.6,687.2z"/>
		</g>
	</g>
</g>
<g id="guy">
	<g id="hand_left">
		<path class="st0" d="M380.1,552c-4.6,1.3-11.3,5.2-19,22.5c-7.1,15.9-8.8,28.9-8.8,28.9c-10,74.9-7,10.9-10.1,67.1
			c-4.5,81.4-6.7,122-10.4,213.6c-0.8,20.3-1.6,36.7-2,46.3c-2.3-0.9-5.9-2-10.6-2c-4,0-7.2,0.7-9.4,1.4c-2.2-0.4-5.6-0.8-9.7-0.1
			c-4.6,0.8-8,2.7-10,3.9c-0.4-0.1-8-1.8-12.4,3.2c-1.4,1.6-2.1,3.4-2.3,4.7c-2.4,0.3-6.8,1.2-11.3,4.1c-3.1,2-5.1,4.3-6.4,6
			c1.4,0.6,3.6,1.5,6.3,2c4.4,0.9,7,0.3,10.4,0.5c2.8,0.2,6.8,0.9,11.6,3.6c-3.9,1.6-6.2,4.7-6,7.7c0.3,3.5,4.1,5.5,4.5,5.7
			c4.5,2.2,8.2-0.6,16.3-2.2c5.7-1.2,5.3,0,18.5-0.7c6.8-0.4,12.1-0.6,18.4-1.7c11.3-1.9,19-3.2,25.1-8.7c4.1-3.7,6.3-8.3,9.2-19.7
			c5.8-22.4,6.3-37.8,6.3-37.8c0.5-14.1,1-0.1,12.6-88.1c2.5-19.2,3.8-28.8,5.4-42.6c5.6-47.2,8.1-80.6,8.7-89.3
			c5.9-81.8-1.8-53.6,0.8-85.4c0.1-0.7,1.2-14.1-4.9-28.4c-5-12-10.7-14.1-12.8-14.7C384.6,550.8,381.4,551.6,380.1,552z"/>
		<path class="st5" d="M391.4,553.6c0.8,9.2,1.7,22.5,2.4,38.5c3.3,76.8,6.5,107-16.4,229c-13.9,73.7-9.8,119.2-32.9,127.7
			c-3.3,1.2-31.2,10.7-49.3,1.6c-1.3-0.7-5.3-2.8-11.1-4.2c-10.2-2.5-23.4-2.3-25.2,2.3c-0.7,1.9,0.4,4.5,2,5.5
			c2.1,1.4,5,0.1,6.8-0.4c3.7-1.1,9.5-1,18.3,4.2c-4.4,2.9-6.5,7.1-5.4,10c1.3,3.4,6.6,4.1,8.3,4.3c6,0.7,9.5-1.9,14.8-3.6
			c6.8-2.1,7,0.4,19.7-0.2c4.2-0.2,13.7-0.9,24.9-4.3c7.3-2.2,11-3.4,14.5-6.2c8.7-7.1,10-18.8,10.5-23.3c2.7-24,9.2-47.5,10.7-71.6
			c1.4-23.9,2.2-9.7,11.3-83.6c3.8-30.8,5.7-50.3,8.3-75.8c1.8-18.2,3.2-33.4,4-53c0.1-1.2-0.2-16.5-0.6-47.1
			c-0.2-15.8-0.6-28.7-8.8-41.4C395.6,558.1,393.1,555.4,391.4,553.6z"/>
		<g>
			<g>
				<path class="st1" d="M384.8,550c-21.4-0.1-28.2,31.1-32.4,46.8c-6.7,25.1-9.8,51-12,76.9c-4.8,56.8-7.5,113.8-9.1,170.7
					c-0.9,32.3-1.4,64.7-1.5,97c0,1.9,3,1.9,3,0c0.1-54.5,1.4-108.9,4-163.3c1.3-27,2.9-54,4.8-81c1.8-25.8,3.8-51.6,8.6-77
					c2.6-13.9,6.1-27.6,10.8-40.9c3.8-10.8,10.1-26.2,23.8-26.2C386.7,553,386.7,550,384.8,550L384.8,550z"/>
			</g>
		</g>
		<g>
			<g>
				<path class="st1" d="M384.5,552.4c11,1.7,14.3,14.7,16.5,23.9c3,12.7,4.6,25.6,5.2,38.6c1.2,24.8-0.9,49.6-3,74.3
					c-4.4,52.4-11.1,104.6-18.4,156.7c-4.2,29.4-8.6,58.7-13,88.1c-0.3,1.9,2.6,2.7,2.9,0.8c8.2-54.2,16.3-108.5,22.9-163
					c3.3-27.5,6.3-55,8.6-82.6c2.3-26.5,4.5-53.3,2.6-79.9c-0.9-13.6-2.8-27.4-6.7-40.5c-2.5-8.4-7.2-17.8-16.8-19.3
					C383.4,549.3,382.6,552.1,384.5,552.4L384.5,552.4z"/>
			</g>
		</g>
		<g>
			<g>
				<path class="st1" d="M328.3,966.5c-6.2,0.5-12.3-0.2-18.5-0.1c-6.1,0.1-11.2,2-17.1,3.5c-3.4,0.8-8.6,1.4-10.5-2.5
					c-1.9-4,1.5-6.6,4.9-8c5.5-2.4,11.7-3.5,17.5-5.1c1.9-0.5,1.1-3.4-0.8-2.9c-5.6,1.5-34.4,6.9-23.4,18.8c4.7,5.1,11.6,3,17.3,1.2
					c10.1-3.2,20.2-1,30.5-1.9C330.2,969.3,330.2,966.3,328.3,966.5L328.3,966.5z"/>
			</g>
		</g>
		<g>
			<g>
				<path class="st1" d="M286.7,956.4c-8.2-3.7-16.9-5-25.8-4c-1.9,0.2-1.9,3.2,0,3c8.4-1,16.6,0.1,24.3,3.5
					C286.9,959.8,288.5,957.2,286.7,956.4L286.7,956.4z"/>
			</g>
		</g>
		<g>
			<g>
				<path class="st1" d="M259.4,951.6c-1.1-1.3,4-4.1,4.7-4.4c1.1-0.4,2.1-0.8,3.2-1.1c2.9-0.8,5.9-1.3,8.9-1.6
					c4.9-0.5,9.8-0.4,14.8-0.3c1.9,0,1.9-3,0-3c-9-0.1-18.3-0.3-26.9,2.8c-3.7,1.3-10.9,5-6.9,9.7
					C258.5,955.2,260.7,953,259.4,951.6L259.4,951.6z"/>
			</g>
		</g>
		<g>
			<g>
				<path class="st1" d="M276.8,941.1c-2.3-7.2,21.5-4.4,24.1-3.7c1.9,0.4,2.7-2.5,0.8-2.9c-5.1-1.2-31.5-4.2-27.8,7.4
					C274.5,943.7,277.4,943,276.8,941.1L276.8,941.1z"/>
			</g>
		</g>
		<g>
			<g>
				<path class="st1" d="M290.9,934.9c6.5-4.5,14.6-5.1,21.6-1.2c1.7,0.9,3.2-1.7,1.5-2.6c-7.9-4.3-17.2-3.9-24.6,1.2
					C287.8,933.4,289.3,936,290.9,934.9L290.9,934.9z"/>
			</g>
		</g>
		<g>
			<g>
				<path class="st1" d="M310.2,931.2c6.4-1.9,12.9-1.7,19.2,0.6c1.8,0.7,2.6-2.2,0.8-2.9c-6.8-2.5-13.9-2.7-20.8-0.6
					C307.6,928.8,308.4,931.7,310.2,931.2L310.2,931.2z"/>
			</g>
		</g>
		<g>
			<g>
				<path class="st1" d="M327.8,969.4c11.3-2.1,25.5-2.7,35-9.8c8.9-6.7,10.4-18.2,11.5-28.5c0.2-1.9-2.8-1.9-3,0
					c-1.1,10.5-2.7,22.1-12.9,27.7c-9.2,5.1-21.3,5.8-31.5,7.7C325.1,966.9,325.9,969.8,327.8,969.4L327.8,969.4z"/>
			</g>
		</g>
	</g>
	<g id="leg_left_1_">
		<path class="st0" d="M575.5,802.1c3-9.2,8-18.2,17.9-36c12.3-22.1,25.3-41.1,50.7-78.3c8.4-12.3,18-26,34.3-39.2
			c10-8.1,18.5-12.7,28.7-13.1c10-0.4,17.7,3.4,20.4,4.9c14,7.2,20.6,20,24.5,27.6c25.3,48.7,20.1,31.2,37.8,68.9
			c14.7,31.4,23.1,53.7,25.2,59.3c6.2,16.5,11,31.3,14.6,43.5c-1.8,2.9-4.4,6.7-8.2,10.6c-0.9,0.9-7,7.1-15.9,11.6
			c-14.6,7.3-29.1,6.3-39.6,5.5c-8.3-0.6-21-2.5-35.6-8.7c-4.1-10.8-8.1-22-12-33.6c-5.3-15.5-10-30.7-14.2-45.3
			c-2.3,5.1-5.9,13.4-9.6,23.8c-11.5,32.3-9.4,43.3-19.8,58c-11.2,15.8-27.3,22.2-32.3,24.1c-16,6.1-46.7,11.2-64-5.7
			C557.2,858.8,570.4,817.9,575.5,802.1z"/>
		<path class="st5" d="M723.7,718.5c-22.4,48.7-44.7,97.4-67.1,146c5.9,0.3,11.8,0.7,17.7,1c10.2-28.7,20.4-57.5,30.6-86.2
			c7.8,25.5,15.6,51,23.3,76.4c2.5,2.3,5.9,4.8,10.1,6.9c11.3,5.7,22.2,5.2,27.5,4.5c-2.5-10.2-5.1-20.5-7.8-30.8
			C747.4,795.6,735.9,756.3,723.7,718.5z"/>
		<g>
			<g>
				<path class="st1" d="M572.6,812.4c12.1-27.8,26.2-54.7,42.4-80.3c16.4-26,34.8-51.7,55.9-74.1c10.4-11,23.8-21.4,39.8-21.1
					c15.1,0.3,26.2,11.5,34.4,23.1c17.4,24.7,31.5,52.4,44.5,79.7c15.4,32.4,28.3,66,38.7,100.4c0.6,1.8,3.5,1.1,2.9-0.8
					c-9.5-31.4-21.1-62.2-34.8-92c-13.7-29.8-28.9-59.7-47.4-86.8c-6.9-10.1-15.4-20.2-27.2-24.4c-13.1-4.7-27.5-0.5-38.5,7.2
					c-12.6,8.8-22.4,21.5-31.9,33.3c-9.9,12.2-19.2,24.9-28.1,37.9c-20.7,30.4-38.5,62.8-53.1,96.6
					C569.2,812.6,571.8,814.1,572.6,812.4L572.6,812.4z"/>
			</g>
		</g>
		<g>
			<g>
				<path class="st1" d="M722.3,718.1c-16.3,47.6-32.6,95.2-48.9,142.8c-0.6,1.8,2.3,2.6,2.9,0.8c16.3-47.6,32.6-95.2,48.9-142.8
					C725.8,717.1,722.9,716.3,722.3,718.1L722.3,718.1z"/>
			</g>
		</g>
		<g>
			<g>
				<path class="st1" d="M702.1,778.4c8.9,25.7,17.1,51.6,24.7,77.7c0.5,1.8,3.4,1.1,2.9-0.8c-7.6-26.1-15.8-52-24.7-77.7
					C704.4,775.8,701.5,776.6,702.1,778.4L702.1,778.4z"/>
			</g>
		</g>
		<g>
			<g>
				<path class="st1" d="M727.8,858.3c14.7,11.7,38.1,11.9,55.7,8.9c10-1.7,19.7-4.9,28.6-9.6c7.6-4,15.7-9,18.3-17.7
					c0.5-1.9-2.3-2.6-2.9-0.8c-2.5,8.6-11.5,13.4-19.1,17.1c-8.1,4-16.8,6.7-25.7,8.2c-16.4,2.8-39.2,2.7-52.8-8.1
					C728.4,855,726.3,857.1,727.8,858.3L727.8,858.3z"/>
			</g>
		</g>
	</g>
	<g id="torso_1_">
		<path class="st4" d="M349.4,579.6c-13.2,23.3-10.7,45.9-6.6,83.4c3.9,35.3,13.6,71.2,60.5,171c11.7,24.9,27.8,58.2,48.1,97.3
			c12.5,1.6,27.2,1.9,43.4-1.2c64.4-12.3,98.9-68.6,106.7-82c-14.6-29.9-24.3-55.2-30.5-72.7c-6.1-17.2-26.2-76.5-39.8-165.3
			c-7.7-50-5.6-58.6-16.4-69.2C479.4,506.7,381.2,523.7,349.4,579.6z"/>
	</g>
	<g id="head_1_">
		<path class="st1" d="M360.3,489.8c-1.9,6.8,4.9,15,10.6,18.8c7.8,5.3,19.4,6.4,28.1-0.3c8.8-6.7,12.6-19.4,8.3-25.9
			C399.6,470.8,364,476.7,360.3,489.8z"/>
		<path class="st3" d="M505.4,381.6c-0.8-4.3-3.5-7.9-6.3-9.9c-7.6-5.4-18.9-0.4-24.3,1.9c-12.2,5.3-19.5,14.7-23.3,20.7
			c-6.4-3.5-18.1-8.7-32.7-7.7c-31.4,2.1-49.2,30.9-53.7,38.1c-14.7,23.8-13.1,47.7-12.5,55.1c1.1,13.8,5,24.6,8.2,31.6
			c5.6,0.9,13.9,1.6,23.6-0.2c5.7-1,14.5-3.4,29.4-12.9c8-5.1,29.3-19.7,50.4-48c7-9.5,12.1-17.9,15.3-23.7
			c6.9-5,11.5-10.3,14.3-14.1c6.1-8.2,8.4-15.3,10.6-22.3C505.3,387.4,506,384.8,505.4,381.6z M401.5,496.8
			c-8.6,4.9-15.8,6.9-20.4,7.8c-1.4,0.3-6.7,1.3-12-0.5c-4.1-1.4-4.7-3.1-4.8-3.6c-0.2-0.8-0.3-1.7,0-2.7c0.6-2.1,2.2-3.1,4.1-3.8
			c1.5-0.6,2.8-0.5,3.8,0.2c1.6-0.1,3.9-0.2,6.6-0.9c10.9-2.5,15.2-9,19-7.5C399.5,486.5,401.3,488.9,401.5,496.8z"/>
		<path class="st0" d="M361.4,513.4c3.3,5.3,6.6,10.8,9.8,16.5c8.5,14.9,15.9,29.4,22.4,43.4c3.2,1.3,8,2.9,13.9,3.1
			c17.3,0.5,30.4-11.6,38.6-19.3c32.2-30.4,61.6-63,71.2-73.7c-1.4-3.9-3-7.8-4.7-11.7c-8.3-19.3-18.3-35.5-28.4-49
			c-3.1,3.8-7.6,9.6-13.2,16.6c-23.9,30.4-23.5,31-29.1,36.9c-8.2,8.7-21.4,22.4-42.6,30.6C383.9,512.8,370.1,513.6,361.4,513.4z"/>
		<path class="st1" d="M425.3,491.8c-8.9,5.9-22,13.1-39,17.6c-9.3,2.4-17.8,3.5-25,4c5.4,9.3,10.8,18.7,16.2,28
			c0.5,1.5,6.5,17.6,18.1,18.9c7.8,0.9,13.9-5.4,22.8-14.5c5.9-6,13.3-14.9,19.7-27.5c-1.8-0.2-7.2-0.9-10.4-5.2
			c-1.7-2.3-2.1-4.6-2.6-8.3C424.8,501.7,424.5,497.3,425.3,491.8z"/>
		<path class="st6" d="M385.4,554.5c0.6,0.8,4.1,5.2,10.3,5.8c4.2,0.4,7.4-1.3,8.6-2c2.4,5.9,4.7,11.8,7.1,17.7
			c-1.8,0.6-7.2,2.2-12.5-0.2c-3.7-1.7-5.6-4.5-7.8-7.9C389.3,565.2,386.8,560.7,385.4,554.5z"/>
		<path class="st7" d="M425.3,491.8c3.8-0.8,9.4-2.3,15.2-5.8c8.8-5.3,13.6-12.2,16.5-16.5c8.4-12.3,18.3-26.8,29.4-43.7
			c-0.5-1.4-1.1-2.8-1.6-4.1c-2.4,2.3-5.8,5.8-9.5,10.4c-7.5,9.6-11.3,18.1-12.4,20.3C458.9,461.1,449.2,473.9,425.3,491.8z"/>
		<path class="st1" d="M449.2,471.7c3.1,7.8,7.6,12.2,10.1,14.2c9,7.4,23.1,10.6,33.7,6.1c5.6-2.4,7.5-5.8,14.5-6.8
			c5.6-0.8,10,0.5,12.3,1.1c14.4,4.3,26,19,30.4,34.1c1,3.4,3.4,13,1.2,25.2c-2,11-6.8,18.7-9.7,22.7c0-6.6,0-13.3,0-19.9
			c-3.9,5.9-10.6,14.4-21.1,21.5c-5.1,3.5-41.2,27-67,8.5c-16.3-11.7-22.9-36.1-15.8-60.1c2.5-2.1,5.3-5.2,7.1-9.6
			c3.8-9.6,0.6-21.5-7.9-30.8C441.1,475.9,445.2,473.8,449.2,471.7z"/>
		<g>
			<g>
				<path class="st1" d="M487.1,429.6c10.9,17.2,21.8,34.5,28.4,53.9c0.5-0.6,1-1.3,1.4-1.9c-2.6,0.3-5,0.2-7.6-0.2
					c-1.9-0.3-2.7,2.6-0.8,2.9c2.8,0.5,5.5,0.6,8.4,0.3c0.9-0.1,1.8-0.9,1.4-1.9c-6.6-19.6-17.6-37.2-28.7-54.6
					C488.6,426.4,486,427.9,487.1,429.6L487.1,429.6z"/>
			</g>
		</g>
		<ellipse transform="matrix(0.866 -0.5 0.5 0.866 -166.6984 301.8115)" class="st1" cx="479.8" cy="462" rx="3.2" ry="8.5"/>
		<g>
			<g>
				<path class="st1" d="M441.8,490.9c-1-4.3-7.8-2.9-10.7-1.7c-4.6,1.9-8,5.9-9.3,10.7c-3,10.9,4.7,21.9,16.4,19.9
					c1.9-0.3,1.1-3.2-0.8-2.9c-8.7,1.5-14.6-6.6-13-14.8c0.5-2.8,1.8-5.6,3.9-7.6c0.7-0.6,9.8-6.1,10.6-2.8
					C439.4,493.6,442.3,492.8,441.8,490.9L441.8,490.9z"/>
			</g>
		</g>
		<g>
			<g>
				<path class="st1" d="M361.3,511c-5.2-17.2-9.1-34.2-6.5-52.3c2.4-16.2,9-31.8,19.3-44.5c10-12.4,23.7-22.7,39.6-25.6
					c18-3.2,34.5,5.3,48.9,15c1.6,1.1,3.1-1.5,1.5-2.6c-11.5-7.8-24.1-14.8-38.2-16c-12.9-1.1-25.7,3.4-36.3,10.6
					c-21.7,14.8-35.2,40-38.2,65.8c-2,17.4,1.9,33.7,6.9,50.3C359,513.7,361.9,512.9,361.3,511L361.3,511z"/>
			</g>
		</g>
		<g>
			<g>
				<path class="st1" d="M359.7,512.7c25.4,5.6,50.8-8.2,70.2-23.4c20-15.7,35.9-36.1,47.8-58.4c0.9-1.7-1.7-3.2-2.6-1.5
					c-11.1,20.8-25.5,39.7-43.6,54.8c-19.1,15.9-45.3,31.3-71,25.6C358.6,509.4,357.8,512.3,359.7,512.7L359.7,512.7z"/>
			</g>
		</g>
		<g>
			<g>
				<path class="st1" d="M452.7,395.4c6.6-7.7,14.5-14.1,23.5-18.7c5-2.5,10.9-5.3,16.6-5c7.1,0.4,11.6,5.5,11.2,12.5
					c-0.5,9.4-5.6,19.9-11.1,27.3c-5.5,7.4-14.1,12-18.8,20.1c-1,1.7,1.6,3.2,2.6,1.5c3.3-5.7,8.6-9.5,13.3-13.9
					c4-3.8,7.2-8.2,9.8-13.1c4.3-8.2,10.2-20.3,6-29.5c-4.6-10.2-17.2-8.6-25.6-5c-11.4,4.8-21.5,12.3-29.5,21.7
					C449.3,394.7,451.4,396.8,452.7,395.4L452.7,395.4z"/>
			</g>
		</g>
		<g>
			<g>
				<path class="st1" d="M361.9,494.9c0.9,7.1,3.3,12,11,12.1c10.3,0.2,20-4.1,29.2-8.3c1.8-0.8,0.2-3.4-1.5-2.6
					c-6.2,2.8-12.5,5.6-19.2,7c-3.2,0.7-7.3,1.5-10.6,0.7c-4.7-1.1-5.4-4.9-5.9-9C364.7,493,361.7,493,361.9,494.9L361.9,494.9z"/>
			</g>
		</g>
		<g>
			<g>
				<path class="st1" d="M363.8,495.6c12.5-1,24.2-3.7,35.4-9.4c-0.7-0.3-1.5-0.6-2.2-0.9c1.2,4,2.3,8.1,3.5,12.1
					c0.5,1.9,3.4,1.1,2.9-0.8c-1.2-4-2.3-8.1-3.5-12.1c-0.3-1-1.3-1.3-2.2-0.9c-10.7,5.5-21.9,8.1-33.9,9
					C361.9,492.7,361.9,495.7,363.8,495.6L363.8,495.6z"/>
			</g>
		</g>
		<g>
			<g>
				<path class="st1" d="M358.8,512.1c12.4,20,23.6,40.7,33.5,62c0.8,1.7,3.4,0.2,2.6-1.5c-9.9-21.3-21.1-42-33.5-62
					C360.4,508.9,357.8,510.4,358.8,512.1L358.8,512.1z"/>
			</g>
		</g>
		<g>
			<g>
				<path class="st1" d="M394,574.3c4.9,5.3,13.7,4.1,20.1,2.8c8.5-1.8,16.2-6.1,22.5-12.1c1.4-1.3-0.7-3.4-2.1-2.1
					c-5.2,4.9-11.3,8.5-18.2,10.5c-5.7,1.7-15.6,3.8-20.2-1.2C394.8,570.7,392.7,572.8,394,574.3L394,574.3z"/>
			</g>
		</g>
		<g>
			<g>
				<path class="st1" d="M482.8,423.5c13,19.1,24.1,39.5,33.1,60.7c0.3-0.7,0.6-1.5,0.9-2.2c-4.5,0.7-8.6-0.1-12.6-2.3
					c-1.7-1-3.2,1.6-1.5,2.6c4.7,2.7,9.5,3.5,14.9,2.6c1.1-0.2,1.2-1.4,0.9-2.2c-9.1-21.3-20.1-41.6-33.1-60.7
					C484.3,420.4,481.7,421.9,482.8,423.5L482.8,423.5z"/>
			</g>
		</g>
	</g>
	<g id="leg_right_1_">
		<path class="st0" d="M451.4,931.2c1.6,4.5,4.1,10.8,7.9,17.8c0,0,10.7,19.5,26.1,32.6c5.5,4.7,24.3,18.3,109.9,5.2
			c26.8-4.1,23-5.1,82.3-16.8c4.7-0.9,32.3-6.1,87.4-16.4c23.8-4.5,47.1-8.8,78.4-16.3c9.9-2.4,18.2-4.4,23.9-5.9
			c3.4-2.8,8.9-8,13.1-16.2c5.8-11.1,5.9-21.3,5.8-24.6c0-1.9-0.4-12.1-6-22.6c-11.3-21.3-34.9-27-39-27.9
			c-12.9-1.1-32.1-2.4-55.5-2.4c-31.3,0-54.9,2.3-91.8,6.1c-17.3,1.7-40.9,4.4-69.1,8.3c-7.8-1.3-15.6-2.7-23.5-4
			c-5.3,9.3-13.4,21.8-25.6,34.7c-9.6,10.2-26.4,27.7-54,39C492.6,933.8,466,932.9,451.4,931.2z"/>
		<path class="st6" d="M453.7,934.3c2.5,2.5,6.4,6.1,11.5,9.9c33.6,24.9,73.5,23.7,130.9,18.1c92.8-9.2,139.2-13.7,189.5-31.6
			c42.6-15.1,76.3-33,99.8-47.2c0.6,3.9,1.1,9.8,0,16.7c-0.9,5.6-3,18.4-13.9,27.2c-2.6,2.1-7.8,5.7-15.9,7.2
			c-14.4,3.2-35.5,7.9-61.1,13.3c-110.2,23.4-92.9,16.6-162.7,31.6c-27.9,6-55.2,12.4-93.4,12.7c-34.6,0.3-50.6-4.5-62.7-15
			C460,963.7,455.3,944.6,453.7,934.3z"/>
		<g>
			<g>
				<path class="st1" d="M450.9,930.5c7.1,23.7,18.8,45.2,43.5,53.7c26.7,9.2,57.6,6.5,85.1,3.1c30-3.7,59.9-9.2,89.7-14.5
					c31.1-5.5,62.2-11.3,93.2-17.4c34.2-6.8,68.4-13.9,102.5-21.5c1.9-0.4,1.1-3.3-0.8-2.9c-57.9,12.8-116,24.5-174.3,35.1
					c-29.1,5.3-58.3,10.3-87.5,14.9c-29.3,4.6-59.6,8.5-89.2,4.4c-14.4-2-28.9-6.7-39.3-17.3c-10.3-10.5-15.8-24.7-19.9-38.5
					C453.3,927.9,450.4,928.7,450.9,930.5L450.9,930.5z"/>
			</g>
		</g>
		<g>
			<g>
				<path class="st1" d="M627.7,852.4c45.2-5.7,90.6-9.8,136.1-12.2c22.4-1.2,45.8-3.6,68.1-0.4c21.1,3,41.1,13.1,49.3,33.9
					c8.2,20.9,0.9,44.8-17,58.1c-1.5,1.1,0,3.7,1.5,2.6c14.9-11,23.7-29.2,21.7-47.8c-1.9-18.5-13.6-34.6-30.3-42.6
					c-21.3-10.2-45.8-8.9-68.8-7.9c-24.9,1-49.8,2.5-74.6,4.5c-28.8,2.3-57.4,5.3-86.1,8.9C625.8,849.7,625.8,852.7,627.7,852.4
					L627.7,852.4z"/>
			</g>
		</g>
	</g>
	<g id="hand_right_1_">
		<path class="st0" d="M508,530.4c-2.8,2.6-11.5,11.2-20,34.5c-6.3,17.2-8.4,31.3-8.9,35.1c-6,45.1-9.4,85.3-10.1,94.6
			c-2.5,35.4-3.8,53.1-4.5,73.3c-0.5,13.6-0.5,19.7-1.6,56.9c-1.1,36.5-1.2,31.2-1.2,39.9c-0.3,36.3,0.2,62.6,1.9,90.3
			c0.9,15.9,2,29.1,2.9,38.2c1.9,4.1,5.3,9.5,11.4,12.5c7.6,3.7,15.4,1.5,19.9,0.4c13.2-3.2,9,0.5,45.8-2.3c10.4-0.8,17-1.5,18-4.9
			c0.7-2.4-1.5-5.3-3.7-7.5c8.7-0.2,16.3-0.9,22.6-1.5c9.3-1,14.4-2,19.2-5.7c2.2-1.7,3.8-3.5,4.7-4.8c-1.9-1.7-4.9-4-9-5.5
			c-7.4-2.7-13.5-1-22.2,0c-9.5,1.1-7-0.3-24.5,0.5c-7.5,0.3-18.1,1.1-31,2.8c1.3-16.8,3.1-41.6,5.5-71.7c4.6-60.4,6.9-90.6,8.3-106
			c5.4-60.7,7.8-68.6,14-132c0,0,4-20.9,9.2-112.1c0-0.4,0.4-8.5-2.2-18.4c-2-7.6-4.3-10.8-6.1-12.7c-0.4-0.4-4.2-4.4-9.4-5.9
			C524.8,514.8,512.1,526.5,508,530.4z"/>
		<path class="st8" d="M525.5,518.8c-4.3,9.2-10.2,22.5-16.1,39c-22.1,61-25.3,109.1-28.9,154.3c-10.2,129.8-23.7,238.5,7.6,264.5
			c10.8,8.9,22.8,14.4,22.8,14.4c25.7,11.7,46.4,7.8,46.5,10.4c0.2,3.3-34.2,5.9-64.1,5.7c-9.5,0-18.6-0.5-24.1-6.8
			c-5-5.6-4.3-12.6-4.6-28.3c-0.5-24.5-1.8,8.7-2.1-35.1c-0.7-119.8,2.6-181.6,2.6-181.6c3.4-64.2,4.1-40.5,7-95.8
			c0,0,1.8-33.6,12.5-84.1c1.9-9.1,5.2-23.5,16.5-37.3C509.6,528.1,519,522.1,525.5,518.8z"/>
		<g>
			<g>
				<path class="st1" d="M466.8,985.4c-4.6-64.8-4.6-129.8-1.9-194.7c1.3-32.5,3.3-64.9,5.7-97.3c2.3-31.2,4.1-62.7,10-93.5
					c4.8-25.3,11.6-55.6,32.9-72.5c6.2-4.9,14.6-9.7,22.8-7.7c5.8,1.4,9.7,5.9,12.2,11.1c5.5,11.7,4.7,26,4.5,38.6
					c-0.5,32-4.9,63.7-8.9,95.4c-4,31.4-7.5,62.9-10.6,94.5c-7.1,72.4-12,144.9-16.9,217.4c-0.1,1.9,2.9,1.9,3,0
					c4.6-67.3,9.2-134.5,15.4-201.6c3.2-33.9,6.8-67.7,11-101.5c4.1-33,9-66,9.9-99.2c0.5-16.7,3.6-54.5-20.6-57.8
					c-12-1.6-23.9,7.5-31.3,16c-8,9.1-13.3,20.3-17.3,31.7c-10.3,29.5-13.6,61.3-16.2,92.2c-2.8,33.5-5.1,67-6.9,100.6
					c-3.6,67.5-4.9,135.2-1.3,202.7c0.5,8.6,1,17.2,1.6,25.8C464,987.4,467,987.4,466.8,985.4L466.8,985.4z"/>
			</g>
		</g>
		<g>
			<g>
				<path class="st1" d="M463.9,984.7c0.6,9.6,2.6,20,13.3,22.5c5.8,1.3,12,0.7,17.9,0.5c8-0.2,16-0.5,23.9-0.9
					c7.5-0.4,15.1-0.7,22.6-1.4c5.7-0.5,12.4-0.8,17.7-3.2c3.1-1.4,4.9-4,3.6-7.5c-1.7-4.2-6.4-4.8-10.4-5.1c-1.9-0.1-1.9,2.9,0,3
					c1.3,0,2.6,0.2,3.9,0.4c3.4,0.6,4.2,2.6,2.5,6c-1.6,1.4-5.4,1.7-7.4,2c-4.8,0.9-9.7,1.2-14.6,1.6c-9.6,0.6-19.3,1.1-28.9,1.5
					c-8.8,0.3-18,1.3-26.9,0.5c-11.4-1-13.8-10.2-14.3-20.1C466.8,982.7,463.8,982.7,463.9,984.7L463.9,984.7z"/>
			</g>
		</g>
		<g>
			<g>
				<path class="st1" d="M532.3,992.3c7.4-0.4,14.7-0.2,22,0.6c1.9,0.2,1.9-2.8,0-3c-7.3-0.8-14.6-1-22-0.6
					C530.3,989.4,530.3,992.4,532.3,992.3L532.3,992.3z"/>
			</g>
		</g>
		<g>
			<g>
				<path class="st1" d="M518.7,978.1c6.1,1.5,12.2,1.2,18.5,0.8c7.4-0.5,14.9-0.9,22.3-0.9c15-0.1,30,0.9,44.8,2.9
					c1.9,0.3,1.9-2.7,0-3c-14.2-1.9-28.5-2.9-42.9-2.9c-7.2,0-14.3,0.2-21.5,0.7c-6.9,0.5-13.7,1.3-20.5-0.5
					C517.6,974.7,516.8,977.6,518.7,978.1L518.7,978.1z"/>
			</g>
		</g>
		<g>
			<g>
				<path class="st1" d="M552.5,992.4c10.5-0.3,21.2,0,31.6-1.4c8-1.1,15.7-3.7,21.2-9.9c1.3-1.4-0.8-3.6-2.1-2.1
					c-5.9,6.7-14.5,8.7-23,9.5c-9.2,0.8-18.4,0.7-27.6,1C550.6,989.5,550.5,992.5,552.5,992.4L552.5,992.4z"/>
			</g>
		</g>
		<g>
			<g>
				<path class="st1" d="M522.6,977.1c12.8,1,25.5-0.1,38.2-1.2c6-0.5,12.1-1.1,18.2-1.3c6.5-0.3,14.5-1.2,19.9,3.3
					c1.5,1.2,3.6-0.9,2.1-2.1c-8.9-7.4-24-4.2-34.5-3.3c-14.6,1.2-29.2,2.9-43.9,1.8C520.7,973.9,520.7,976.9,522.6,977.1
					L522.6,977.1z"/>
			</g>
		</g>
	</g>
</g>
<g id="girl">
	<g id="leg_right">
		<path d="M1099.6,829.6c1,0.7,2,0.4,11,2.6c4.8,1.2,5.6,1.5,6.4,2.2c3.9,3.3,2.5,10.8,2.1,13.5c-1.4,8.6,2.1-4.4,0.6,39.2
			c-0.8,21.9-1.9,31.8,2.7,33.9c1.8,0.8,4.1,0.3,5.5-0.5c4.3-2.4,4.7-9.2,4.9-12c0.9-11.7,2.9-4.2,7.9-33.1
			c1.4-8.3,3.5-20.5,4.5-36.9c0.7-11.9,0.7-22.5,0.4-31.4c-5-0.9-10.2-1.9-15.5-3.1c-8.7-2-16.9-4.2-24.5-6.6
			C1096.3,820.3,1096.8,827.6,1099.6,829.6z"/>
		<path class="st0" d="M1118.1,693.5c-5.2-0.2-13.3-0.7-29.7-1.4c-37.4-1.7-34.2-1.3-54-2.3c-16.2-0.8-32.4-0.6-48.5-1.7
			c-13.1-0.9-22-1.8-31.1,3.7c-9.2,5.5-13.3,14.3-15,18c-6.1,13.1-4.4,25.2-3.4,31.9c0.4,2.8,2.4,15.1,11.2,29
			c7.1,11.1,15.5,18.1,26.7,26.2c16.1,11.6,35.2,25.3,65.7,38c14.2,5.9,33.7,12.8,57.9,17.8c-0.7-5.9-1.1-12.6-0.6-20
			c1.3-20.9,8.5-37.3,14.2-47.4c6.4,2.3,15.5,5.3,26.7,7.5c7.5,1.5,34.9,6.2,70.7-1c17.9-3.6,28.9-5.8,41.7-13.7
			c19.9-12.2,42.9-37.2,36.8-55.9c-1.6-4.9-5.7-11-22-18.4C1223.6,684.3,1190.4,696.8,1118.1,693.5z"/>
		<path class="st9" d="M1001.4,724.5c19.3,1.4,48.4,5.3,81.7,17c34.1,12.1,36.9,19.8,63.8,26c48.3,11.2,87.5-2.6,90.4,6.8
			c0.7,2.1-0.4,5.9-9.5,12.9c-7.1,2-17,4.4-29.2,6c-6.4,0.8-27.3,3.3-54.9,0.2c-8.7-1-20.1-2.8-33.4-6.3c-2.1,4.8-4.1,9.6-6.2,14.5
			c-3.6-4.5-8.7-10.6-15.4-17.4c-15.5-15.8-29.4-25.3-41.4-33.4C1035.8,743,1020.4,733.6,1001.4,724.5z"/>
		<g>
			<g>
				<path d="M940.2,710.5c3.8-18.3,24.7-21.4,40.3-21.1c18,0.3,35.9,1.2,53.9,1.9c36.6,1.4,73.2,3.1,109.8,5.1c1.9,0.1,1.9-2.9,0-3
					c-39.9-2.2-79.8-4-119.7-5.5c-9.9-0.4-19.8-0.7-29.7-1c-9.2-0.3-18.5-1-27.6,0.1c-13.2,1.6-26.9,8.7-29.8,22.8
					C937,711.5,939.8,712.4,940.2,710.5L940.2,710.5z"/>
			</g>
		</g>
		<g>
			<g>
				<path d="M938.3,709.2c-5,14-5.4,29.4-1,43.6c4.5,14.6,14.1,26.5,25.4,36.4c23.6,20.7,51.9,36.8,81,48.5
					c17.4,7,35.4,12.4,53.8,16.1c1.9,0.4,2.7-2.5,0.8-2.9c-29.9-6.1-58.8-16.5-85.6-31.1c-13.2-7.2-25.8-15.4-37.8-24.5
					c-12.4-9.4-24.5-20.3-31.4-34.6c-7.7-15.8-8.3-34.3-2.5-50.8C941.8,708.2,938.9,707.4,938.3,709.2L938.3,709.2z"/>
			</g>
		</g>
		<g>
			<g>
				<path d="M1001,726c39.9,10.7,78.4,25.7,115,44.8c1.7,0.9,3.2-1.7,1.5-2.6c-36.8-19.2-75.6-34.3-115.7-45.1
					C1000,722.6,999.2,725.5,1001,726L1001,726z"/>
			</g>
		</g>
		<g>
			<g>
				<path d="M1115.4,770.9c-10.1,26.2-22.7,53.5-18.7,82.2c0.3,1.9,3.2,1.1,2.9-0.8c-4-28,8.8-55.1,18.7-80.6
					C1119,769.9,1116.1,769.1,1115.4,770.9L1115.4,770.9z"/>
			</g>
		</g>
		<g>
			<g>
				<path d="M1108.8,798.5c10.9,4.6,22.2,7.4,34,8.5c1.9,0.2,1.9-2.8,0-3c-11.5-1.1-22.5-3.9-33.2-8.4
					C1107.8,794.9,1107,797.8,1108.8,798.5L1108.8,798.5z"/>
			</g>
		</g>
		<g>
			<g>
				<path d="M1099.2,831c3.4,0.8,6.8,1.6,10.2,2.4c2.8,0.7,4.3,0.7,6.3,2.9c2.1,2.3,1.8,4.2,1.8,7.2c0,8.6,0,17.1,0.1,25.7
					c0.1,8.6,0.4,17.1,0.7,25.6c0.3,7.6-0.2,15.8,1.1,23.3c0.6,3.6,3.3,6.1,7.2,4.7c5.1-1.9,6.1-9.2,7.4-13.7
					c4.7-15.7,8.1-31.8,10.3-48c2.4-18,3.3-36.1,2.7-54.2c-0.1-1.9-3.1-1.9-3,0c0.7,19.4-0.4,38.8-3.2,58
					c-1.4,9.3-3.2,18.6-5.5,27.8c-1.1,4.6-2.3,9.2-3.7,13.7c-0.6,2.1-1.3,4.2-1.9,6.3c-0.3,1.1-0.7,2.2-1.1,3.3
					c-4.4,4-6.5,4.1-6.3,0.3c-1.9-19.5-1.6-39.6-1.8-59.2c0-4.6,0-9.2,0-13.8c0-2.9,0.3-6.4-1.4-8.9c-1.3-1.9-3.3-2.6-5.5-3.2
					c-4.5-1.3-9.1-2.2-13.6-3.3C1098.1,827.7,1097.3,830.6,1099.2,831L1099.2,831z"/>
			</g>
		</g>
		<g>
			<g>
				<path d="M1112.8,787.7c38.3,12.2,79.9,12,118.1-0.6c1.8-0.6,1-3.5-0.8-2.9c-37.8,12.5-78.6,12.7-116.5,0.6
					C1111.7,784.2,1110.9,787.1,1112.8,787.7L1112.8,787.7z"/>
			</g>
		</g>
	</g>
	<g id="torso">
		<path class="st4" d="M1153.1,475.1c21.9-18.6,52.4-15.2,78.8-12.6c33.5,3.4,58.8,15.5,72.9,23.7c-1.3,7.6-3.5,19.9-6.7,35
			c-8.7,41.5-13.4,51.3-18.6,82.8c-3.4,20.6-4.8,36.8-5.7,47.5c-1.9,22.7-2.3,42.7-2.2,59.4c-16.2,5.5-47.7,13.8-87,8.2
			c-32.5-4.6-56.7-16.8-70.6-25.2c6-15.5,13.3-38.9,15.1-67.9c1.9-31.1-4.3-38.9-2.1-70.2C1129.2,524.4,1131.3,493.6,1153.1,475.1z"
			/>
	</g>
	<g id="hand_right">
		<path class="st0" d="M1160.6,471.1c1.7,1.5-6.7,10.4-14.6,29.1c-4.8,11.3-7.2,21.9-11.7,42.6c-4.6,20.6-4.3,23.6-7.3,36.7
			c-2.7,12-7.4,29.4-15.8,50.3c2.1,1.4,5.3,3.7,8.8,6.7c7.1,6,9.8,10.1,15,16c7.1,8,13.5,13.2,26.3,23.8c5.2,4.3,9.7,7.7,12.9,10.2
			c4.6-0.3,9.5-0.4,14.8-0.4c4.4,0.1,8.6,0.3,12.6,0.6c7-3.6,11.1-4.7,12.2-3.3c0.8,0.9,0.3,2.9-1.5,5.9c5.8-0.3,9.9-1.8,12.6-3.2
			c6.5-3.2,9.1-7.6,14.1-7c2.1,0.2,4.7,1.4,5.1,3.1c0.4,1.9-2,4.5-6.3,6c4.5-0.8,7.9-2,10.3-3c2.4-1,3.6-1.8,5.3-1.5
			c3,0.5,4.9,4.1,6,7.2c0.3,1.4,0.5,3.4-0.2,5.6c-1.5,4.3-5.7,6.4-8.4,7.6c-14.1,6.3-32.5,8.7-32.5,8.7c-17,2.2-25.5,3.3-31.6,2.8
			c-8-0.6-13.8-2.1-25.5-5.3c-8.1-2.2-19.2-5.2-33-10.8c-11.7-4.8-24-9.9-38-20.1c-19-13.9-22.7-23.7-23.7-26.7
			c-2.1-6.3-2.1-11.5-2-15.7c0.2-14,5.3-21.9,14.1-42.3c6.9-15.8,4.2-11.8,12.5-31.1c8.5-19.8,12.7-29.7,19.6-40.9
			c3.4-5.5,9.9-15.3,19.6-26.3C1142.5,483.2,1158.3,469.2,1160.6,471.1z"/>
		<path class="st7" d="M1149.6,477.8c-5.2,5.4-12.5,13.4-20,23.9c-17.6,24.7-24.3,46.1-34.4,79.2c-12.9,42.2-10.7,52.4-8.2,59
			c4.4,11.4,12.2,18.4,22.8,26.7c17.5,13.6,44.2,31.9,81.8,49.1c-4.8,0.8-12,1.6-20.5,0.9c-3.8-0.3-15.4-1.5-45.3-16.2
			c-21.8-10.8-32.9-18.6-40.5-24.7c-11.3-9-15.1-14.3-17.3-20c-3.8-9.7-2.6-18.7-1.5-25.8c1.8-12,5.8-19.7,10.3-29.5
			c13-28.2,8.8-26,21.7-53.2c8.1-17,12.1-25.5,19.6-36C1129.1,495.4,1141,484.6,1149.6,477.8z"/>
		<path class="st10" d="M1057.3,749.2"/>
		<g>
			<g>
				<path class="st1" d="M1159.8,469.8c-26.3,17.4-45.9,41.5-59.4,69.8c-15.1,31.8-27.6,65-38.2,98.6c-0.6,1.8,2.3,2.6,2.9,0.8
					c10.4-32.7,22.5-65.1,37.1-96.2c13.4-28.6,32.7-52.9,59.1-70.4C1162.9,471.4,1161.4,468.8,1159.8,469.8L1159.8,469.8z"/>
			</g>
		</g>
		<g>
			<g>
				<path class="st1" d="M1063.2,636.7c-3.5,24.5,21.7,42.6,40.4,53.1c22.9,12.9,48.6,19.9,73.8,26.7c1.9,0.5,2.7-2.4,0.8-2.9
					c-22.9-6.2-46-12.5-67.3-23.3c-18.8-9.6-48.3-27.8-44.8-52.8C1066.4,635.6,1063.5,634.8,1063.2,636.7L1063.2,636.7z"/>
			</g>
		</g>
		<g>
			<g>
				<path class="st1" d="M1158.8,471.6c-15.1,20.6-19.9,46.6-26.1,70.9c-7.2,28.2-14.4,56.4-21.5,84.6c-0.5,1.9,2.4,2.7,2.9,0.8
					c7-27.6,14-55.1,21-82.7c6.3-24.6,11-51.2,26.3-72.1C1162.6,471.6,1160,470.1,1158.8,471.6L1158.8,471.6z"/>
			</g>
		</g>
		<g>
			<g>
				<path class="st1" d="M1104.7,629.4c7.4,1.3,12.7,6.3,17.6,11.7c5,5.4,10,10.9,15.3,16.1c10.7,10.5,22.2,20.2,34.3,29.2
					c1.6,1.1,3.1-1.5,1.5-2.6c-13.3-9.9-25.9-20.8-37.6-32.6c-8.7-8.8-17.2-22.4-30.3-24.6C1103.6,626.2,1102.8,629.1,1104.7,629.4
					L1104.7,629.4z"/>
			</g>
		</g>
		<g>
			<g>
				<path class="st1" d="M1181.9,697.3c6.6-4.4,14.3-6.8,21.7-9.7c1.5-0.6,3.4-1.6,5-1.9c1.7-1.3,2.9-0.7,3.6,1.8
					c-0.3,0.3-0.6,0.5-0.8,0.8c-0.9,2.6-8.2,6-10.5,7.3c-1.7,0.9-0.2,3.5,1.5,2.6c2.6-1.4,21.2-12.9,11.2-16.4c-2-0.7-4,0.3-5.9,1
					c-3.3,1.2-6.6,2.6-10,3.8c-6,2.3-12.1,4.5-17.4,8.1C1178.7,695.8,1180.2,698.4,1181.9,697.3L1181.9,697.3z"/>
			</g>
		</g>
		<g>
			<g>
				<path class="st1" d="M1178.3,717.1c26.3,0.9,52.4-3.5,77-12.9c1.8-0.7,1-3.6-0.8-2.9c-24.3,9.3-50.2,13.7-76.2,12.8
					C1176.4,714.1,1176.4,717.1,1178.3,717.1L1178.3,717.1z"/>
			</g>
		</g>
		<g>
			<g>
				<path class="st1" d="M1203.4,700c10,3.1,20.2,1.1,30.2-1.3c5.5-1.4,11-2.8,16.6-4.2c2.8-0.7,10.6-4.4,7.1,2.4
					c-1.1,2.1-3.8,4-5.6,5.6c-1.5,1.3,0.7,3.4,2.1,2.1c2.8-2.4,9.7-7.7,8.5-12.2c-1.3-4.7-6.9-2.2-10.1-1.4c-15,3.8-32.5,11-48,6.3
					C1202.4,696.6,1201.6,699.4,1203.4,700L1203.4,700z"/>
			</g>
		</g>
		<g>
			<g>
				<path class="st1" d="M1171.8,687c7.7,4.6,16.4-2,24,1.8c1.7,0.9,3.2-1.7,1.5-2.6c-7.8-3.8-16.7,2.5-24-1.8
					C1171.6,683.4,1170.1,686,1171.8,687L1171.8,687z"/>
			</g>
		</g>
		<g>
			<g>
				<path class="st1" d="M1214.2,690.2c6.9-0.9,13.6-3,19.7-6.4c1.4-0.8,2.7-1.7,4.1-2.4c1.2-0.7,2.5-1.2,3.8-1.6
					c-0.1,1.3-0.2,2.5-0.4,3.8c-1.5,3-8,5.7-10.7,7.1c-1.7,0.9-0.2,3.5,1.5,2.6c4.2-2.1,9.8-4.9,12.5-9c1.3-2,2.5-5.9-0.2-7.3
					c-3.7-1.9-9.3,2.7-12.2,4.3c-5.9,3.2-12.3,5.2-19,6.1C1211.5,687.6,1212.3,690.5,1214.2,690.2L1214.2,690.2z"/>
			</g>
		</g>
		<g>
			<g>
				<path class="st1" d="M1233.9,693.2c3.5-1.9,7.1-3.6,10.9-5.1c1.7-0.6,3.3-1.2,5-1.8c0.6-0.2,1.1-0.3,1.7-0.5
					c2-1,3.6-0.2,4.9,2.2c-1.9,0.1-1.9,3.1,0,3c5.1-0.3,5.4-6.6,0.9-8.4c-3.4-1.4-7.6,0.5-10.8,1.7c-4.9,1.7-9.6,3.8-14.1,6.3
					C1230.7,691.5,1232.2,694.1,1233.9,693.2L1233.9,693.2z"/>
			</g>
		</g>
	</g>
	<g id="cat">
		<path d="M1076.9,616.4c-5.6-0.8-9.1-3.8-8.9-5.8c0.2-2,4.3-4.3,10.1-3.8c5.6-8.7,10.5-11.9,14.4-12.8c0,0,0.1,0,0.1,0
			c5.4-1.2,9.8-0.9,13.4-0.1c3.2-4.3,8.1-5,9.9-3.4c1.7,1.5,1.8,6-1.4,9.7c1.5,1,3.2,2.1,5.2,3.1c3.1,1.6,6,2.7,8.5,3.4
			c5.2,0.4,12.2,1.3,20.3,3.5c13.1,3.5,22.1,8.5,29.1,12.4c13.5,7.6,20.2,11.6,25.5,19.1c8.5,12.2,8.6,26.4,7.6,35.1
			c3.8,1.4,9.6,3.1,16.8,3.7c15.3,1.2,20.1-4.3,29.2-2.5c17.7,3.4,28,29.9,26,31.5c-0.9,0.7-5.2-2.7-11.9-8.2c-6.9-5.6-7.5-7.3-11-9
			c-6.2-3-11.7-1.3-17.6-0.8c-6.9,0.6-17.2-0.1-30.7-6.9c-2,2.4-3.9,3.3-5.3,3.7c-2.3,0.6-3.9-0.1-7.3,0.9c-1.4,0.4-2.3,0.9-2.7,1
			c-4.1,1.2-9.1,1-25.4,1.4c-7.5,0.2-12.5,0.3-20.5,0.1c-15-0.4-15.5-1.5-15.6-1.9c-0.3-1.3,3.1-3.9,20.7-9.9
			c-2.1-4.4-5.1-9.8-9.7-15.2c-10.2-11.9-22.2-17.4-28.9-19.9c-3.8,2.1-9.2,5.5-15.1,10.6c-14.8,13.1-20,27-22.6,26
			c-2.1-0.8-0.6-10.1,1.7-17c4.8-14.2,15.9-22.9,16-22.9c0,0-3.2,2.5-7.1,7.8c-10.9,14.5-11.9,28.4-14.3,28.1
			c-1.7-0.2-2.4-8-2.2-14.5c0.4-12.8,4.4-22.8,7.5-28.9C1079.4,628.2,1078.2,622.3,1076.9,616.4z"/>
		<g>
			<g>
				<path class="st0" d="M1088.3,613.3c-0.1,2-1.1,3.7-2.8,4.8c-1.6,1-0.1,3.6,1.5,2.6c2.6-1.7,4.1-4.3,4.3-7.4
					C1091.4,611.4,1088.4,611.4,1088.3,613.3L1088.3,613.3z"/>
			</g>
		</g>
		<g>
			<g>
				<path class="st0" d="M1099.3,610.6c2.3,2.4,5.8,2.9,8.8,1.5c1.7-0.8,0.2-3.4-1.5-2.6c-1.8,0.9-3.8,0.4-5.1-1
					C1100.1,607.1,1098,609.2,1099.3,610.6L1099.3,610.6z"/>
			</g>
		</g>
		<g>
			<g>
				<path class="st0" d="M1095.7,619.2c1.9,0,1.9-3,0-3C1093.8,616.2,1093.8,619.2,1095.7,619.2L1095.7,619.2z"/>
			</g>
		</g>
		<g>
			<g>
				<path class="st0" d="M1094.3,619.2c0,1.3-0.5,2.5-1.3,3.4c-1.2,1.5,0.9,3.6,2.1,2.1c1.4-1.6,2.1-3.5,2.2-5.6
					C1097.4,617.3,1094.4,617.3,1094.3,619.2L1094.3,619.2z"/>
			</g>
		</g>
		<g>
			<g>
				<path class="st0" d="M1095.9,620.4c1.7,1.6,3.9,2.2,6.2,1.9c0.8-0.1,1.2-1.1,1-1.8c-0.2-0.9-1-1.2-1.8-1
					c-1.2,0.2-2.4-0.3-3.2-1.1C1096.6,616.9,1094.4,619,1095.9,620.4L1095.9,620.4z"/>
			</g>
		</g>
	</g>
	<g id="hand_lef">
		<path class="st0" d="M1286.2,485.4c-2.3,0.6-5.2,2.8-9.3,17.1c-3.7,13.1-4.3,20.2-4.3,20.2c-2.8,35.4-13.5,78.7-14.2,81.4
			c-1.6,6.3-4.2,16.2-8.4,28.2c-6.4-0.1-13.1-0.5-20.1-1.2c-19.3-1.9-36.3-5.9-50.6-10.4c-7.1-8.1-10.8-15.4-13-20.8
			c-1.6-4.1-3.5-10.2-9.3-15.5c-1.1-1-5.5-5-7.6-3.8c-1.7,1-1.5,5.1,0.2,10.3c-7.2-5.3-13.7-9.2-18.7-12
			c-16.8-9.5-22.5-9.2-26.1-8.3c-3.7,0.9-6.5,2.9-8.3,4.4c-0.5,0.3-4.2,2.8-4.6,7.5c-0.3,3.1,1.1,5.4,1.6,6.2
			c-0.2,0.2-3,3.5-1.8,7.7c1.1,3.8,4.5,5.2,4.9,5.3c-0.5,1.1-1,2.7-0.5,4.6c0.6,2.3,2.5,3.6,4.2,4.8c8,5.6,5.8,5.2,11.5,8.7
			c2.5,1.6,6,3.5,10.2,5.3c4.3,5.3,8.5,9.4,11.6,12.2c6,5.4,12.7,11.2,22.8,14.9c4,1.5,7.5,2.2,9.9,2.6c11.5,4.6,21.8,8.3,30.6,11.3
			c13,4.4,23.3,7.5,28.3,8.9c17.9,5.2,14,3.2,28.1,7.4c5.6,1.7,10.5,3.3,17.7,3.7c10.7,0.7,15-1.8,16.3-2.7c4.4-2.8,6.4-7.1,7.4-9.4
			c10-23.4,12.9-57,12.9-57c2.4-28.6,3.7-43.2,3.6-58.3c-0.1-26.5-2.5-17-2.7-38.1c0,0-0.1-14.2-6-25.2c-0.7-1.4-2.2-3.8-4.9-6
			C1296.6,488.6,1291,484.1,1286.2,485.4z"/>
		<path class="st11" d="M1294.9,487.4c1,8.2,2.3,20.8,2.8,36.2c1.5,42.8-3.8,71.3-9.4,99.9c-6.5,33-11,40.1-17.7,44.1
			c-5.1,3-11.5,4.3-40.1-2c-37-8.1-55.4-12.2-73.6-23.2c-10.1-6.1-20.2-14-44.1-27.9c-12.5-7.3-16.4-9.1-16.9-8.4
			c-0.6,0.9,5.5,6.6,11,10.6c5.9,4.3,11.3,6.9,15.2,8.4c4.4,5.4,8.6,9.4,11.6,12.2c6.9,6.2,14.6,13,26.3,16.2c2.7,0.7,5,1.1,6.4,1.3
			c17.2,6.5,32.2,11.8,44.3,15.8c41,13.7,27.8,6.7,46.7,13c1.8,0.6,8.1,2.7,16.3,2.6c4.3-0.1,9.2-0.2,13.6-2.8
			c5.7-3.5,7.6-9.7,10.2-18.9c4.8-17.4,7.2-26.1,8-31.5c2-14.3,4.7-33.6,5.3-61.7c0.5-29.2-2.1-21-1.7-45.6c0.1-5.4,0.3-13.6-3.7-23
			C1302.3,495.5,1298,490.5,1294.9,487.4z"/>
		<g>
			<g>
				<path class="st1" d="M1287.8,486.7c18.5,2,18.7,29.4,20.1,43.1c1.6,16.1,2.1,32.3,1.5,48.5c-1.2,33.5-7.1,66.7-17.3,98.6
					c-0.6,1.8,2.3,2.6,2.9,0.8c11.3-35.1,17.2-71.8,17.6-108.7c0.2-18.2-1-36.4-3.6-54.4c-1.8-12.9-5.8-29.2-21.3-30.9
					C1285.9,483.4,1285.9,486.4,1287.8,486.7L1287.8,486.7z"/>
			</g>
		</g>
		<g>
			<g>
				<path class="st1" d="M1286.7,483.2c-12.2,9.1-13.5,28.1-16.1,41.8c-3.5,19.1-6.2,38.3-9.5,57.4c-1.7,9.7-3.6,19.4-5.9,28.9
					c-1,4.3-2.1,8.6-3.3,12.9c-0.8,2.9-1,6.2-4.7,7.2c-2,0.5-5.2-0.4-7.3-0.7c-20.4-2.2-40.5-6.1-60.2-11.6
					c-1.9-0.5-2.7,2.4-0.8,2.9c19.4,5.3,39.1,9.2,59.1,11.5c6.8,0.8,13.2,2.8,15.7-4.8c3.2-9.6,5.2-19.7,7.2-29.6
					c4.1-20,6.9-40.1,10.2-60.2c1.7-10,3.5-20.1,5.7-30c1.9-8.5,4-17.8,11.3-23.2C1289.7,484.6,1288.2,482,1286.7,483.2
					L1286.7,483.2z"/>
			</g>
		</g>
		<g>
			<g>
				<path class="st1" d="M1164,655.4c23.5,9.5,47.6,17.6,72.1,24.1c11.5,3.1,23.3,6.6,35.1,8.1c8.8,1.1,18.5-1,22.9-9.5
					c0.9-1.7-1.7-3.2-2.6-1.5c-6,11.5-20.6,8.2-30.8,5.9c-11-2.5-21.9-5.3-32.8-8.4c-21.4-6.1-42.4-13.3-63.1-21.6
					C1163,651.8,1162.2,654.7,1164,655.4L1164,655.4z"/>
			</g>
		</g>
		<g>
			<g>
				<path class="st1" d="M1179.7,619c-4.8-5.8-8.3-12.4-11.8-19.1c-2.8-5.5-5.4-11.6-9.6-16.2c-2-2.1-6.5-6-9.7-4.3
					c-3.9,2.1-1.6,9.1-0.5,12c0.7,1.8,3.6,1,2.9-0.8c-0.7-1.6-2.4-5.6-1.4-7.2c1.6-2.7,5.2,1,6.6,2.5c3.3,3.5,5.4,8.3,7.6,12.6
					c4.1,7.9,8.1,15.8,13.8,22.7C1178.9,622.6,1181,620.5,1179.7,619L1179.7,619z"/>
			</g>
		</g>
		<g>
			<g>
				<path class="st1" d="M1155.3,595.9c-9.2-11.5-23.1-18.7-36.4-24.4c-6.2-2.7-13-3.3-19.5-1.3c-3.3,1-6.2,4.3-3.1,7.3
					c1.4,1.4,3.5-0.8,2.1-2.1c-0.7-0.7,3.5-2.6,4.1-2.8c1.6-0.5,4-0.6,5.8-0.5c3,0.1,5.7,0.7,8.4,1.8c4.6,1.9,9.2,4.3,13.6,6.6
					c8.6,4.6,16.6,9.9,22.8,17.6C1154.4,599.5,1156.5,597.4,1155.3,595.9L1155.3,595.9z"/>
			</g>
		</g>
		<g>
			<g>
				<path class="st1" d="M1097.2,605.3c1.6-2.5,3.5-3.2,5.7-2.3c1.5,0.4,3,1,4.5,1.7c2,0.9,4.1,1.8,6.1,2.8c4.4,2,8.9,3.8,13.1,6.3
					c1.7,1,3.2-1.6,1.5-2.6c-4.4-2.6-9.3-4.5-14-6.7c-4-1.8-8.3-4.2-12.7-4.8c-4.4-0.6-9.3,2.3-6.8,7.2
					C1095.5,608.6,1098.1,607,1097.2,605.3L1097.2,605.3z"/>
			</g>
		</g>
		<g>
			<g>
				<path class="st1" d="M1098.2,600.1c-1.6-0.6-5.6-3.3-5.5-5.6c1.1-1.5,2.2-3,3.3-4.4c0.6,0,1.1,0,1.7,0c3.2-0.4,7.5,1.3,10.4,2.5
					c6.4,2.4,12.5,5.8,18.6,8.8c1.7,0.9,3.2-1.7,1.5-2.6c-9.5-4.7-23.2-14.1-34.5-11.5c-3.3,0.8-4.7,3.4-4.3,6.7
					c0.7,4.4,3.9,7.5,7.9,9.1C1099.2,603.7,1100,600.8,1098.2,600.1L1098.2,600.1z"/>
			</g>
		</g>
		<g>
			<g>
				<path class="st1" d="M1095.6,586.4c-0.7-1.3-1.4-2.5-2.1-3.8c0.4-2.7,1.6-3.8,3.8-3.4c1.5-0.1,2.6,0.2,4,0.6
					c2.8,0.9,5.5,2.1,8.3,3.1c5.5,2.1,11,4.2,16.4,6.2c1.8,0.7,2.6-2.2,0.8-2.9c-5.8-2.2-11.5-4.4-17.3-6.6c-4.1-1.6-9-4.3-13.6-3.6
					c-6.4,1-7.3,10-1.8,12.8C1095.8,589.9,1097.4,587.3,1095.6,586.4L1095.6,586.4z"/>
			</g>
		</g>
		<g>
			<g>
				<path class="st1" d="M1095.2,607.4c4.4,5.6,9.8,10.3,16.1,13.8c2.9,1.6,6,2.7,8.8,4.4c3.9,2.4,6.3,5.9,9.3,9.3
					c9.2,10.4,21.3,17.7,34.6,21.4c1.9,0.5,2.7-2.4,0.8-2.9c-14.2-3.9-26-11.9-35.4-23.2c-4.4-5.3-9-7.7-15.1-10.8
					c-6.7-3.4-12.3-8.2-16.9-14.1C1096.1,603.8,1094,605.9,1095.2,607.4L1095.2,607.4z"/>
			</g>
		</g>
	</g>
	<g id="leg_left">
		<path d="M1131.1,840.4c-4.6,4.3-8.6,7.5-11.4,9.7c-11.1,8.6-16.5,10.7-19.5,17.6c-0.6,1.4-1.3,3.4-1.6,10.5
			c-0.7,15.2,1.4,27.2,1.6,28.4c2.5,13.8,8.8,39.7,19.1,72.7c2-2.6,4.8-6.9,6.8-12.6c2.5-7.1,2.7-13,2.8-15.1
			c0.4-9.8,2.9-29.7,8.1-63c1.9-3,4.7-6.8,8.6-10.5c5.3-5,10.6-8,14.4-9.9c-3.8-2.7-7.8-5.8-12-9.5
			C1141.1,852.5,1135.5,846.1,1131.1,840.4z"/>
		<path class="st0" d="M1235.1,686.3c-24.7,23.5-40.2,38.1-62,63.6c-14,16.4-31.6,38.4-50.3,65.9c2,8.3,7.7,26.1,23.6,41.2
			c5.1,4.8,16.4,15.3,34.3,19.2c7.6,1.7,14.2,1.7,18.6,1.4c12.8-10.5,30.1-26.1,48.2-47c14.2-16.5,23.5-30.5,42-58.5
			c31.4-47.5,11.9-25.8,42.8-78.1c3.4-5.8,11.2-18.8,8.5-33.9c-0.5-2.9-2.5-14.1-11.3-18.9c-1.6-0.9-5.5-2.7-15.1-1.7
			c-14.3,1.5-24.7,7.5-26.8,8.8C1253.9,668.5,1235.1,686.3,1235.1,686.3z"/>
		<path class="st12" d="M1334.8,645.5c-1.8,7.1-4.8,17.5-9.6,29.5c-10.9,27.3-23.3,43.6-45.1,72.6c-55.2,73.3-61.9,83.8-83.2,99.1
			c-14.5,10.4-27.6,17.3-36.7,21.5c4.3,2.3,9.6,4.7,15.8,6.8c8.9,3,14.2,4.7,20.3,3.4c5.5-1.2,8.9-4.4,13.1-8.4
			c21.9-20.8,24.8-24.4,24.8-24.4c22.8-28,34.2-42.1,36.3-45c17.6-24.5,28.9-44.2,38.3-60.6c14.8-26.1,7.4-16.6,21.4-41.7
			c4.6-8.2,8.1-14.2,9.4-23.2C1341.3,662.9,1337.8,652.3,1334.8,645.5z"/>
		<g>
			<g>
				<path d="M1123.8,815c21.2-30.8,44.7-59.9,70.4-87c12.7-13.4,25.9-26.2,39.7-38.6c13.5-12.1,27.3-24.1,42.8-33.4
					c7.5-4.6,15.5-8.5,23.8-11.3c8.8-3,20-6.4,28.8-1.7c8.1,4.4,10.6,14.9,10.1,23.3c-0.6,10.2-4.9,19.8-9.4,28.8
					c-15.3,31.2-32.1,61.8-51.2,90.7c-21.9,33.1-47.4,63.9-77.8,89.5c-1.5,1.2,0.7,3.4,2.1,2.1c57.5-48.5,97.3-114.7,129.9-181.6
					c6.9-14.2,14.3-32.5,5.6-47.6c-9.3-16-29.6-10.3-43.6-4.8c-16.5,6.5-31.2,16.7-44.9,27.9c-15.2,12.5-29.7,25.9-43.7,39.8
					c-31.6,31.3-60.1,65.6-85.3,102.3C1120.1,815.1,1122.7,816.6,1123.8,815L1123.8,815z"/>
			</g>
		</g>
		<g>
			<g>
				<path d="M1121.3,816.3c4.5,18.6,15.4,35.1,30.5,46.9c7.4,5.8,15.8,10.4,24.8,13.4c7.7,2.6,19,6.2,26.2,0.7
					c1.5-1.1,0-3.8-1.5-2.6c-7.1,5.3-19.2,0.8-26.6-2c-8.4-3.2-16.3-7.9-23.3-13.7c-13.4-11.3-23.1-26.5-27.2-43.5
					C1123.7,813.6,1120.9,814.4,1121.3,816.3L1121.3,816.3z"/>
			</g>
		</g>
		<g>
			<g>
				<path d="M1130.1,839.4c-5.4,4.6-10.8,9.3-16.3,13.9c-4.4,3.8-10.2,7.5-13.7,12.1c-2.9,3.8-2.8,8.6-2.9,13.2
					c-0.2,6.6,0.1,13.2,0.7,19.7c2.4,26.3,9.9,51.7,17.5,76.9c0.6,1.8,3.4,1.1,2.9-0.8c-7.1-23.7-14.3-47.7-17-72.4
					c-0.7-5.9-1-11.9-1.1-17.8c-0.1-6.2-1-13.8,3.7-18.5c8.7-8.8,19-16.3,28.4-24.3C1133.6,840.2,1131.5,838.1,1130.1,839.4
					L1130.1,839.4z"/>
			</g>
		</g>
		<g>
			<g>
				<path d="M1159.4,867c-4.8,3.3-9.7,6.5-14.4,9.9c-3,2.1-6.1,4.3-7.9,7.6c-2,3.7-2.2,8-2.7,12.1c-0.7,5.8-1.4,11.6-2.2,17.4
					c-1.4,11.3-2.8,22.5-4.2,33.8c-1.3,10.6-2.3,22.1-9.7,30.5c0.8,0.2,1.7,0.4,2.5,0.7c-0.7-1.7-1.4-3.3-2.1-5
					c-0.7-1.8-3.6-1-2.9,0.8c0.7,1.7,1.4,3.3,2.1,5c0.4,1,1.7,1.6,2.5,0.7c5.5-6.3,7.8-14,9.1-22.1c1.6-10.2,2.7-20.6,3.9-30.8
					c1.4-10.9,2.7-21.9,4.1-32.8c0.4-2.8,0.6-5.5,1.8-8.1c1.5-3.3,4.2-5.1,7-7.1c4.8-3.4,9.6-6.6,14.4-9.9
					C1162.5,868.5,1161,865.9,1159.4,867L1159.4,867z"/>
			</g>
		</g>
	</g>
	<g id="head">
		<path class="st0" d="M1166.1,321.9c-19,8.5-26.9,27.6-29.9,35.1c-8.2,19.8-5.4,37.4-3,51.7c2.5,14.8,10.5,62.2,38,67.5
			c3.7,0.7,16.6,2.4,34.5-12.6c4.5,7.6,9,15.1,13.6,22.7c2.6-0.5,6.4-1.5,10.6-3.6c10.7-5.1,17-13.3,22.2-21
			c15.5-23.1,23.3-34.6,24.8-50c2.3-23.5-7.5-41.4-10.7-46.6c-9.3-15.5-21.5-23.2-30.4-28.6C1221.8,327.8,1192.8,309.9,1166.1,321.9
			z"/>
		<path class="st13" d="M1227.9,362.1c-4.1,4.2-0.3,10.4,0,25c0.4,17.7-4.8,31.1-7.5,38.4c-3.4,8.9-11,25.1-28.4,40.8
			c5.8-1.8,14.3-5.2,23.1-11.8c7.5-5.7,12.7-11.7,16-16.3c3.8,11.7,7.5,23.5,11.3,35.2c2-2.5,4.5-5.7,7-9.8
			c0.3-0.4,4.3-6.9,7.4-14.7c2.1-5.3,6.6-18.1,8.2-42.8c1.2-19.1,1.8-28.7-2.4-34.6C1254,359.5,1234.2,355.6,1227.9,362.1z"/>
		<path class="st3" d="M1172.1,331.1c-0.6,4.8-1,14.1,3.3,24.4c1,2.3,10.8,24.9,33.8,28.2c13.6,2,24.3-3.9,28.3-6.3
			c0.8-1.3,3-4.5,6.6-5.1c5.9-1,10.7,5.7,12.5,9.3c2.7,5.3,3.4,13.4-1.5,19.5c-4.1,5.1-10,6-11.5,6.2c-1,5.6-1.9,13.8-1.1,23.7
			c0.7,9.4,1.8,24.5,10.5,36.3c11.6,15.8,37.9,27.5,56.3,16.9c15.9-9.2,18.1-30.7,18.4-34.5c0.8-10-1.8-17.8-3.9-23.7
			c-10.5-28.2-27-48.7-35-58.7c-44.4-55.8-38.7-57.3-50-62.2c-29-12.7-66.9-3.1-86.2,11.9c-0.3,0.3-0.7,0.5-0.7,0.6
			c-21,16.8-27.5,41.2-29.3,48.7c-6.5,26.2,4.3,26.7,0.4,63.8c-2.6,24.1-7.7,29.6-4.6,46.1c1.3,7,5.2,26.4,21.6,36.7
			c19.5,12.2,52.2,8.6,64.5-12.5c9-15.4,2.9-33.1,1.5-36.8c-6,2.2-12.1,4.3-18.1,6.5c-3.1-1.4-7.1-3.4-11.3-6.1
			c-3.5-2.2-8.4-5.7-13.5-10.8c-14.9-14.9-19.4-32-21.2-39.1c-1.8-7-5.1-20.2-1.8-36.1C1145.3,350.9,1165.7,335.4,1172.1,331.1z"/>
		<g>
			<g>
				<path class="st1" d="M1139.4,361.4c-9.6,42,5,90.2,46.5,108.8c1.7,0.8,3.3-1.8,1.5-2.6c-40.3-18.1-54.5-64.6-45.1-105.4
					C1142.7,360.3,1139.8,359.5,1139.4,361.4L1139.4,361.4z"/>
			</g>
		</g>
		<g>
			<g>
				<path class="st1" d="M1187.9,470.2c12.7-3,23.6-10.3,33-19.1c9.3-8.7,17.7-18.7,21.1-31.2c0.5-1.9-2.4-2.7-2.9-0.8
					c-3.3,12-11.5,21.5-20.4,29.9c-9.1,8.5-19.5,15.5-31.7,18.3C1185.2,467.7,1186,470.6,1187.9,470.2L1187.9,470.2z"/>
			</g>
		</g>
		<g>
			<g>
				<path class="st1" d="M1240.6,419.5c-0.4,14.2,2.7,28,9,40.7c0.9,1.7,3.4,0.2,2.6-1.5c-6.1-12.3-8.9-25.5-8.6-39.2
					C1243.7,417.5,1240.7,417.5,1240.6,419.5L1240.6,419.5z"/>
			</g>
		</g>
		<g>
			<g>
				<path class="st1" d="M1204.4,464.3c1.9,4,3.9,8,6.1,11.8c1.7,3,3.3,7.2,5.7,9.6c3.5,3.6,8,1.2,11.9-0.6
					c5.7-2.5,10.9-6.3,15.2-10.8c3.3-3.5,8.7-9.3,8.3-14.4c-0.2-1.9-3.2-1.9-3,0c0.4,4.4-5.1,10-7.9,12.8c-3.5,3.6-7.5,6.5-12,8.8
					c-1.9,1-4.5,2.6-6.7,2.7c-3.8,0.3-5.4-3.5-7-6.4c-2.8-5-5.4-10-7.9-15.2C1206.1,461,1203.5,462.6,1204.4,464.3L1204.4,464.3z"/>
			</g>
		</g>
		<g>
			<g>
				<path class="st1" d="M1146.9,372c3.7-5.7,11.4-4.7,14,1.3c0.8,1.8,3.4,0.2,2.6-1.5c-3.6-8.2-14.4-8.7-19.2-1.3
					C1143.3,372.1,1145.9,373.6,1146.9,372L1146.9,372z"/>
			</g>
		</g>
		<g>
			<g>
				<path class="st1" d="M1169.2,374.2c0.9,20,0.2,40.8,4.6,60.4c0.3,1.4,2,1.3,2.7,0.4c3.3-4.7,5.9-9.7,7.9-15.1
					c0.7-1.8-2.2-2.6-2.9-0.8c-1.9,5.2-4.4,9.9-7.6,14.4c0.9,0.1,1.8,0.2,2.7,0.4c-4.3-19.3-3.6-40-4.5-59.6
					C1172.1,372.2,1169.1,372.2,1169.2,374.2L1169.2,374.2z"/>
			</g>
		</g>
		<g>
			<g>
				<path class="st1" d="M1186.9,370.3c4.2-6.1,12.6-4.8,15.4,1.8c0.8,1.8,3.3,0.2,2.6-1.5c-3.8-8.9-15.3-9.5-20.6-1.8
					C1183.3,370.3,1185.9,371.9,1186.9,370.3L1186.9,370.3z"/>
			</g>
		</g>
		<g>
			<g>
				<path class="st1" d="M1180.9,444c8.3-0.4,15.6-4.5,20.4-11.2c1.1-1.6-1.5-3.1-2.6-1.5c-4.2,5.9-10.6,9.4-17.8,9.7
					C1179,441.1,1179,444.1,1180.9,444L1180.9,444z"/>
			</g>
		</g>
		<g>
			<g>
				<path class="st1" d="M1154.4,423.3c1.9,0,1.9-3,0-3C1152.5,420.3,1152.5,423.3,1154.4,423.3L1154.4,423.3z"/>
			</g>
		</g>
		<g>
			<g>
				<path class="st1" d="M1162.1,421c1.9,0,1.9-3,0-3C1160.1,418,1160.1,421,1162.1,421L1162.1,421z"/>
			</g>
		</g>
		<g>
			<g>
				<path class="st1" d="M1161.5,428.6c1.9,0,1.9-3,0-3C1159.6,425.6,1159.6,428.6,1161.5,428.6L1161.5,428.6z"/>
			</g>
		</g>
		<g>
			<g>
				<path class="st1" d="M1199.1,415.7c1.9,0,1.9-3,0-3C1197.2,412.7,1197.2,415.7,1199.1,415.7L1199.1,415.7z"/>
			</g>
		</g>
		<g>
			<g>
				<path class="st1" d="M1209.1,410.4c1.9,0,1.9-3,0-3C1207.2,407.4,1207.2,410.4,1209.1,410.4L1209.1,410.4z"/>
			</g>
		</g>
		<g>
			<g>
				<path class="st1" d="M1206.8,418c1.9,0,1.9-3,0-3C1204.8,415,1204.8,418,1206.8,418L1206.8,418z"/>
			</g>
		</g>
		<ellipse transform="matrix(0.989 -0.1481 0.1481 0.989 -46.3333 175.9475)" class="st1" cx="1158" cy="399" rx="2.3" ry="7"/>
		<ellipse transform="matrix(0.989 -0.1481 0.1481 0.989 -45.413 181.0699)" class="st1" cx="1192.9" cy="395.4" rx="2.3" ry="7"/>
		<g>
			<g>
				<path class="st1" d="M1241,408.2c-0.4,5-1.5,9.8-3.3,14.4c-0.7,1.8,2.2,2.6,2.9,0.8c1.9-4.9,3-10,3.4-15.2
					C1244.2,406.3,1241.2,406.3,1241,408.2L1241,408.2z"/>
			</g>
		</g>
		<g>
			<g>
				<path class="st1" d="M1242.4,408.3c3.3,3.2,9.6-1.3,11.9-3.9c4.5-5,5.5-12.5,4.6-19c-0.8-5.8-3.7-11.7-9.4-13.9
					c-5.2-2-10.9,0-13.3,5.1c-0.8,1.7,1.8,3.3,2.6,1.5c2.4-5.2,8.5-5.6,12.5-2c3.4,2.9,4.6,7.6,4.8,11.9c0.2,3.8-0.2,7.6-1.9,11.1
					c-1,2-2.2,3.7-4,5c-0.9,0.7-4.6,3.2-5.7,2.1C1243.1,404.8,1241,406.9,1242.4,408.3L1242.4,408.3z"/>
			</g>
		</g>
		<g>
			<g>
				<path class="st1" d="M1242.9,408.2c-2.7,8.8-2.9,17.8-1.6,26.9c0.6,4.5,1.6,9,2.8,13.4c1.4,5.5,3.7,11,3.1,16.7
					c-0.2,1.9,2.8,1.9,3,0c0.9-8.7-3.6-17.8-5.2-26.3c-1.9-10-2.2-20.1,0.8-29.9C1246.3,407.2,1243.4,406.4,1242.9,408.2
					L1242.9,408.2z"/>
			</g>
		</g>
		<g>
			<g>
				<path class="st1" d="M1208.1,467.9c10.2-6.9,18.2-16.3,23.2-27.6c0.8-1.7-1.5-3.1-2.6-1.5c-6.2,9.1-13.7,17.1-22.3,24
					c-1.5,1.2,0.6,3.3,2.1,2.1c8.8-7.1,16.4-15.3,22.8-24.6c-0.9-0.5-1.7-1-2.6-1.5c-4.8,10.8-12.3,19.9-22.1,26.5
					C1205,466.4,1206.5,469,1208.1,467.9L1208.1,467.9z"/>
			</g>
		</g>
	</g>
</g>
</svg>
